<svg width="32" height="32" viewBox="0 0 32 32" fill="none" xmlns="http://www.w3.org/2000/svg">
<rect width="32" height="32" rx="5" fill="white"/>
<mask id="path-2-inside-1_86_25" fill="white">
<path d="M11.1049 21.2055L16.0839 13.2572L21.0629 21.2055L24.4196 15.512H22.4056L21.0629 13.6518H28L21.0629 25.0388L16.0839 16.9777L11.1049 25.3206L4 13.6518H11.1049L9.81818 15.512H7.58042L11.1049 21.2055Z"/>
</mask>
<path d="M16.0839 13.2572L19.3481 11.2125L16.0839 6.00167L12.8198 11.2125L16.0839 13.2572ZM11.1049 21.2055L7.8299 23.2329L11.0855 28.492L14.3691 23.2503L11.1049 21.2055ZM7.58042 15.512V11.6603H0.666069L4.30542 17.5394L7.58042 15.512ZM9.81818 15.512V19.3638H11.8373L12.986 17.7032L9.81818 15.512ZM11.1049 13.6518L14.2727 15.8429L18.4524 9.80008H11.1049V13.6518ZM4 13.6518V9.80008H-2.85475L0.710135 15.6549L4 13.6518ZM11.1049 25.3206L7.81503 27.3238L11.138 32.7812L14.4124 27.2945L11.1049 25.3206ZM16.0839 16.9777L19.3609 14.9536L16.0273 9.55652L12.7764 15.0038L16.0839 16.9777ZM21.0629 25.0388L17.7859 27.0629L21.0856 32.405L24.3523 27.0427L21.0629 25.0388ZM28 13.6518L31.2894 15.6557L34.8567 9.80008H28V13.6518ZM21.0629 13.6518V9.80008H13.5327L17.9397 15.906L21.0629 13.6518ZM22.4056 15.512L19.2824 17.7662L20.4354 19.3638H22.4056V15.512ZM24.4196 15.512L27.7376 17.4682L31.1617 11.6603H24.4196V15.512ZM21.0629 21.2055L17.7988 23.2503L21.1627 28.6204L24.3809 23.1617L21.0629 21.2055ZM12.8198 11.2125L7.84073 19.1608L14.3691 23.2503L19.3481 15.3019L12.8198 11.2125ZM14.3799 19.1782L10.8554 13.4847L4.30542 17.5394L7.8299 23.2329L14.3799 19.1782ZM7.58042 19.3638H9.81818V11.6603H7.58042V19.3638ZM12.986 17.7032L14.2727 15.8429L7.93713 11.4607L6.65041 13.3209L12.986 17.7032ZM11.1049 9.80008H4V17.5035H11.1049V9.80008ZM0.710135 15.6549L7.81503 27.3238L14.3948 23.3175L7.28986 11.6487L0.710135 15.6549ZM14.4124 27.2945L19.3914 18.9516L12.7764 15.0038L7.79741 23.3467L14.4124 27.2945ZM12.8069 19.0018L17.7859 27.0629L24.3399 23.0147L19.3609 14.9536L12.8069 19.0018ZM24.3523 27.0427L31.2894 15.6557L24.7106 11.6479L17.7736 23.0348L24.3523 27.0427ZM28 9.80008H21.0629V17.5035H28V9.80008ZM17.9397 15.906L19.2824 17.7662L25.5288 13.2578L24.1861 11.3976L17.9397 15.906ZM22.4056 19.3638H24.4196V11.6603H22.4056V19.3638ZM21.1016 13.5559L17.7449 19.2494L24.3809 23.1617L27.7376 17.4682L21.1016 13.5559ZM24.3271 19.1608L19.3481 11.2125L12.8198 15.3019L17.7988 23.2503L24.3271 19.1608Z" fill="url(#paint0_linear_86_25)" mask="url(#path-2-inside-1_86_25)"/>
<mask id="path-4-inside-2_86_25" fill="white">
<path d="M16.028 7L9.98601 17.0341L11.1608 19.0071L16.028 10.495L21.1748 19.0071L22.3496 17.0341L16.028 7Z"/>
</mask>
<path d="M9.98601 17.0341L7.01628 15.2459L5.94552 17.0241L7.00751 18.8076L9.98601 17.0341ZM16.028 7L18.961 5.15216L15.9612 0.390784L13.0582 5.2118L16.028 7ZM22.3496 17.0341L25.3281 18.8076L26.4146 16.983L25.2826 15.1862L22.3496 17.0341ZM21.1748 19.0071L18.2084 20.8007L21.1976 25.7444L24.1533 20.7806L21.1748 19.0071ZM16.028 10.495L18.9944 8.70134L15.9445 3.65731L13.0186 8.77429L16.028 10.495ZM11.1608 19.0071L8.18234 20.7806L11.2215 25.8846L14.1702 20.7278L11.1608 19.0071ZM12.9557 18.8223L18.9977 8.7882L13.0582 5.2118L7.01628 15.2459L12.9557 18.8223ZM13.095 8.84784L19.4167 18.8819L25.2826 15.1862L18.961 5.15216L13.095 8.84784ZM19.3711 15.2605L18.1963 17.2335L24.1533 20.7806L25.3281 18.8076L19.3711 15.2605ZM24.1412 17.2134L18.9944 8.70134L13.0615 12.2887L18.2084 20.8007L24.1412 17.2134ZM13.0186 8.77429L8.1515 17.2863L14.1702 20.7278L19.0373 12.2157L13.0186 8.77429ZM14.1393 17.2335L12.9645 15.2605L7.00751 18.8076L8.18234 20.7806L14.1393 17.2335Z" fill="black" mask="url(#path-4-inside-2_86_25)"/>
<path d="M7.4609 20.8672L8.47723 22.8862L7.4609 24.9396L5.06293 24.9396L7.4609 20.8672Z" fill="black"/>
<path d="M27.367 24.475L25.125 24.3285L23.8885 22.4017L25.1094 20.322L27.367 24.475Z" fill="black"/>
<defs>
<linearGradient id="paint0_linear_86_25" x1="16" y1="13.2572" x2="16" y2="25.3206" gradientUnits="userSpaceOnUse">
<stop stop-color="#238AE4"/>
<stop offset="1" stop-color="#4332B5"/>
</linearGradient>
</defs>
</svg>
