<svg width="35" height="35" viewBox="0 0 35 35" fill="none" xmlns="http://www.w3.org/2000/svg">
<path d="M16.8096 17.5068C16.4678 16.4131 16.4746 14.3008 16.6729 14.3008C17.2471 14.3008 17.1924 16.8232 16.8096 17.5068ZM16.6934 20.7334C16.167 22.1143 15.5107 23.6934 14.752 25.0195C16.0029 24.541 17.418 23.8438 19.0518 23.5225C18.1836 22.8662 17.3496 21.9229 16.6934 20.7334ZM10.2607 29.2646C10.2607 29.3193 11.1631 28.8955 12.6465 26.5166C12.1885 26.9473 10.6572 28.1914 10.2607 29.2646ZM21.3281 10.9375H30.625V33.3594C30.625 34.2686 29.8936 35 28.9844 35H6.01562C5.10645 35 4.375 34.2686 4.375 33.3594V1.64062C4.375 0.731445 5.10645 0 6.01562 0H19.6875V9.29688C19.6875 10.1992 20.4258 10.9375 21.3281 10.9375ZM20.7812 22.6816C19.4141 21.8477 18.5049 20.6992 17.8623 19.0039C18.1699 17.7393 18.6553 15.8184 18.2861 14.6152C17.9648 12.6055 15.3877 12.8037 15.0186 14.1504C14.6768 15.4014 14.9912 17.165 15.5723 19.4141C14.7793 21.3008 13.6104 23.8301 12.7832 25.2793C12.7764 25.2793 12.7764 25.2861 12.7695 25.2861C10.917 26.2363 7.73828 28.3281 9.04395 29.9346C9.42676 30.4062 10.1377 30.6182 10.5137 30.6182C11.7373 30.6182 12.9541 29.3877 14.6904 26.3936C16.4541 25.8125 18.3887 25.0879 20.0908 24.8076C21.5742 25.6143 23.3105 26.1406 24.4658 26.1406C26.4619 26.1406 26.5986 23.9531 25.8125 23.1738C24.8623 22.2441 22.1006 22.5107 20.7812 22.6816ZM30.1465 7.17773L23.4473 0.478516C23.1396 0.170898 22.7227 0 22.2852 0H21.875V8.75H30.625V8.33301C30.625 7.90234 30.4541 7.48535 30.1465 7.17773ZM25.0811 24.6299C25.3613 24.4453 24.9102 23.8164 22.1553 24.0146C24.6914 25.0947 25.0811 24.6299 25.0811 24.6299Z" fill="#FF6565"/>
</svg>
