<svg width="51" height="51" viewBox="0 0 51 51" fill="none" xmlns="http://www.w3.org/2000/svg">
<g clip-path="url(#clip0_83_18)">
<path d="M25.4167 0C11.3867 0 0 11.2 0 25C0 38.8 11.3867 50 25.4167 50C39.4467 50 50.8334 38.8 50.8334 25C50.8334 11.2 39.4467 0 25.4167 0ZM25.4167 45C14.208 45 5.08333 36.025 5.08333 25C5.08333 13.975 14.208 5 25.4167 5C36.6255 5 45.75 13.975 45.75 25C45.75 36.025 36.6255 45 25.4167 45Z" fill="#FFF0E5"/>
<path d="M33.0391 17.125C33.3626 17.125 33.625 16.8626 33.625 16.5391V14.5859C33.625 14.2624 33.3626 14 33.0391 14H18.5859C18.2624 14 18 14.2624 18 14.5859V16.7709C18 17.0945 18.2624 17.3568 18.5859 17.3568H22.75C24.0834 17.3568 25.1065 17.8431 25.7271 18.6875H18.5859C18.2624 18.6875 18 18.9499 18 19.2734V21.2266C18 21.5501 18.2624 21.8125 18.5859 21.8125H26.3377C26.0342 23.5745 24.7283 24.6754 22.6875 24.6754H18.5859C18.2624 24.6754 18 24.9377 18 25.2613V27.8498C18 28.0133 18.0684 28.1694 18.1885 28.2804L26.2477 35.7196C26.3559 35.8195 26.4978 35.875 26.6451 35.875H30.6765C31.2099 35.875 31.4658 35.2203 31.0739 34.8585L23.7066 28.0579C27.4419 27.9437 30.1101 25.4507 30.4604 21.8125H33.0391C33.3626 21.8125 33.625 21.5501 33.625 21.2266V19.2734C33.625 18.9499 33.3626 18.6875 33.0391 18.6875H30.1733C30.0031 18.124 29.769 17.6013 29.4774 17.125H33.0391Z" fill="#FFF0E5"/>
</g>
<defs>
<clipPath id="clip0_83_18">
<rect width="51" height="51" fill="white"/>
</clipPath>
</defs>
</svg>
