<svg width="46" height="50" viewBox="0 0 46 50" fill="none" xmlns="http://www.w3.org/2000/svg">
<path d="M0.329102 0.616699V46.2878H28.4344V42.7746H3.84226V4.12986H21.4081V14.6693H31.9476V18.1825H35.4607V12.2101L34.9338 11.6832L24.3943 1.14367L23.8673 0.616699H0.329102ZM24.9212 6.58907L29.4884 11.1562H24.9212V6.58907ZM7.35542 18.1825V21.6957H28.4344V18.1825H7.35542ZM7.35542 26.9654V30.4786H19.6515V26.9654H7.35542ZM23.1647 26.9654V30.4786H28.4344V26.9654H23.1647ZM7.35542 33.9917V37.5049H19.6515V33.9917H7.35542ZM23.1647 33.9917V37.5049H28.4344V33.9917H23.1647Z" fill="#FFF0E5"/>
<path d="M30.5859 24.125C30.2624 24.125 30 23.8626 30 23.5391V21.5859C30 21.2624 30.2624 21 30.5859 21H45.0391C45.3626 21 45.625 21.2624 45.625 21.5859V23.7709C45.625 24.0945 45.3626 24.3568 45.0391 24.3568H40.875C39.5416 24.3568 38.5185 24.8431 37.8979 25.6875H45.0391C45.3626 25.6875 45.625 25.9499 45.625 26.2734V28.2266C45.625 28.5501 45.3626 28.8125 45.0391 28.8125H37.2873C37.5908 30.5745 38.8967 31.6754 40.9375 31.6754H45.0391C45.3626 31.6754 45.625 31.9377 45.625 32.2613V34.8498C45.625 35.0133 45.5566 35.1694 45.4365 35.2804L37.3773 42.7196C37.2691 42.8195 37.1272 42.875 36.9799 42.875H32.9485C32.4151 42.875 32.1592 42.2203 32.5511 41.8585L39.9184 35.0579C36.1831 34.9437 33.5149 32.4507 33.1646 28.8125H30.5859C30.2624 28.8125 30 28.5501 30 28.2266V26.2734C30 25.9499 30.2624 25.6875 30.5859 25.6875H33.4517C33.6219 25.124 33.856 24.6013 34.1476 24.125H30.5859Z" fill="#FFF0E5"/>
</svg>
