<svg width="50" height="49" viewBox="0 0 50 49" fill="none" xmlns="http://www.w3.org/2000/svg">
<g clip-path="url(#clip0_83_16)">
<path d="M27.4999 33.8754H12.9999C12.3589 33.8754 11.7443 34.13 11.291 34.5832C10.8378 35.0364 10.5832 35.6511 10.5832 36.2921C10.5832 36.933 10.8378 37.5477 11.291 38.0009C11.7443 38.4541 12.3589 38.7087 12.9999 38.7087H27.4999C28.1408 38.7087 28.7555 38.4541 29.2087 38.0009C29.6619 37.5477 29.9165 36.933 29.9165 36.2921C29.9165 35.6511 29.6619 35.0364 29.2087 34.5832C28.7555 34.13 28.1408 33.8754 27.4999 33.8754ZM17.8332 19.3754H22.6665C23.3075 19.3754 23.9222 19.1208 24.3754 18.6676C24.8286 18.2144 25.0832 17.5997 25.0832 16.9587C25.0832 16.3178 24.8286 15.7031 24.3754 15.2499C23.9222 14.7967 23.3075 14.5421 22.6665 14.5421H17.8332C17.1923 14.5421 16.5776 14.7967 16.1244 15.2499C15.6712 15.7031 15.4165 16.3178 15.4165 16.9587C15.4165 17.5997 15.6712 18.2144 16.1244 18.6676C16.5776 19.1208 17.1923 19.3754 17.8332 19.3754ZM46.8332 24.2087H39.5832V2.45874C39.5849 2.0329 39.474 1.61417 39.2618 1.24496C39.0497 0.875749 38.7437 0.569162 38.3749 0.356243C38.0075 0.144136 37.5908 0.0324707 37.1665 0.0324707C36.7423 0.0324707 36.3256 0.144136 35.9582 0.356243L28.7082 4.51291L21.4582 0.356243C21.0908 0.144136 20.6741 0.0324707 20.2499 0.0324707C19.8257 0.0324707 19.4089 0.144136 19.0415 0.356243L11.7915 4.51291L4.54152 0.356243C4.17415 0.144136 3.7574 0.0324707 3.33319 0.0324707C2.90898 0.0324707 2.49224 0.144136 2.12486 0.356243C1.75606 0.569162 1.45008 0.875749 1.23789 1.24496C1.0257 1.61417 0.914832 2.0329 0.916523 2.45874V41.1254C0.916523 43.0482 1.68036 44.8923 3.04 46.2519C4.39964 47.6116 6.2437 48.3754 8.16652 48.3754H41.9999C43.9227 48.3754 45.7668 47.6116 47.1264 46.2519C48.486 44.8923 49.2499 43.0482 49.2499 41.1254V26.6254C49.2499 25.9845 48.9953 25.3698 48.5421 24.9166C48.0888 24.4634 47.4741 24.2087 46.8332 24.2087ZM8.16652 43.5421C7.52558 43.5421 6.9109 43.2875 6.45768 42.8343C6.00447 42.381 5.74986 41.7663 5.74986 41.1254V6.63958L10.5832 9.39458C10.9562 9.58939 11.3708 9.69113 11.7915 9.69113C12.2123 9.69113 12.6269 9.58939 12.9999 9.39458L20.2499 5.23791L27.4999 9.39458C27.8729 9.58939 28.2874 9.69113 28.7082 9.69113C29.129 9.69113 29.5436 9.58939 29.9165 9.39458L34.7499 6.63958V41.1254C34.7564 41.9498 34.9035 42.7671 35.1849 43.5421H8.16652ZM44.4165 41.1254C44.4165 41.7663 44.1619 42.381 43.7087 42.8343C43.2555 43.2875 42.6408 43.5421 41.9999 43.5421C41.3589 43.5421 40.7442 43.2875 40.291 42.8343C39.8378 42.381 39.5832 41.7663 39.5832 41.1254V29.0421H44.4165V41.1254ZM27.4999 24.2087H12.9999C12.3589 24.2087 11.7443 24.4634 11.291 24.9166C10.8378 25.3698 10.5832 25.9845 10.5832 26.6254C10.5832 27.2664 10.8378 27.881 11.291 28.3343C11.7443 28.7875 12.3589 29.0421 12.9999 29.0421H27.4999C28.1408 29.0421 28.7555 28.7875 29.2087 28.3343C29.6619 27.881 29.9165 27.2664 29.9165 26.6254C29.9165 25.9845 29.6619 25.3698 29.2087 24.9166C28.7555 24.4634 28.1408 24.2087 27.4999 24.2087Z" fill="#FFF0E5"/>
</g>
<defs>
<clipPath id="clip0_83_16">
<rect width="50" height="49" fill="white"/>
</clipPath>
</defs>
</svg>
