<svg width="575" height="177" viewBox="0 0 575 177" fill="none" xmlns="http://www.w3.org/2000/svg">
<path d="M53.079 134.665L2.36523 50.1425H43.5702L76.3229 114.591L108.019 50.1425H200.994L190.429 64.934L137.602 65.9905L128.093 82.8951H174.581L164.015 98.7432H118.584L102.736 120.93L158.733 119.874L148.167 134.665H53.079Z" stroke="#FF7D29" stroke-width="2"/>
<path d="M2.5 50.1425L43.5703 50.1424L81.7309 121.196L159.789 118.817L149.224 134.665L53.5 134.665L2.5 50.1425Z" fill="#FF7D29"/>
<path d="M108.019 49.0859L144.998 59.6513L100.623 131.496L71.0404 120.93L108.019 49.0859Z" fill="#FF7D29"/>
<path d="M202.051 49.0859L191.486 65.9905L115.415 68.1036L110.132 49.0859L202.051 49.0859Z" fill="#FF7D29"/>
<path d="M174.581 83.9517L164.016 98.7432L115.23 97.7139L112.245 79.7255L174.581 83.9517Z" fill="#FF7D29"/>
<path d="M235.55 92C234.813 92 234.228 91.805 233.795 91.415C233.362 91.025 233.058 90.57 232.885 90.05L219.625 48.45C219.538 48.2333 219.495 48.0383 219.495 47.865C219.495 47.5183 219.625 47.215 219.885 46.955C220.188 46.6517 220.535 46.5 220.925 46.5H228.985C229.678 46.5 230.22 46.695 230.61 47.085C231 47.475 231.238 47.8433 231.325 48.19L240.49 78.22L249.72 48.19C249.85 47.8433 250.088 47.475 250.435 47.085C250.825 46.695 251.367 46.5 252.06 46.5H260.12C260.51 46.5 260.835 46.6517 261.095 46.955C261.398 47.215 261.55 47.5183 261.55 47.865C261.55 48.0383 261.507 48.2333 261.42 48.45L248.16 90.05C247.987 90.57 247.683 91.025 247.25 91.415C246.86 91.805 246.275 92 245.495 92H235.55ZM269.243 92C268.767 92 268.377 91.8483 268.073 91.545C267.77 91.2417 267.618 90.8517 267.618 90.375V48.125C267.618 47.6483 267.77 47.2583 268.073 46.955C268.377 46.6517 268.767 46.5 269.243 46.5H277.953C278.43 46.5 278.82 46.6517 279.123 46.955C279.427 47.2583 279.578 47.6483 279.578 48.125V90.375C279.578 90.8517 279.427 91.2417 279.123 91.545C278.82 91.8483 278.43 92 277.953 92H269.243ZM305.658 92.65C301.324 92.65 297.728 92.0433 294.868 90.83C292.008 89.5733 289.841 87.9483 288.368 85.955C286.894 83.9617 286.114 81.8383 286.028 79.585C286.028 79.2383 286.158 78.935 286.418 78.675C286.721 78.3717 287.068 78.22 287.458 78.22H295.648C296.254 78.22 296.709 78.3283 297.013 78.545C297.359 78.7617 297.663 79.0433 297.923 79.39C298.269 80.04 298.746 80.6683 299.353 81.275C300.003 81.8817 300.826 82.38 301.823 82.77C302.863 83.1167 304.141 83.29 305.658 83.29C308.171 83.29 310.056 82.9 311.313 82.12C312.613 81.34 313.263 80.2783 313.263 78.935C313.263 77.9817 312.916 77.2017 312.223 76.595C311.529 75.945 310.403 75.3817 308.843 74.905C307.326 74.385 305.289 73.865 302.733 73.345C299.439 72.6517 296.623 71.7633 294.283 70.68C291.986 69.5533 290.231 68.1017 289.018 66.325C287.804 64.505 287.198 62.2517 287.198 59.565C287.198 56.9217 287.934 54.56 289.408 52.48C290.924 50.4 293.026 48.775 295.713 47.605C298.399 46.435 301.584 45.85 305.268 45.85C308.258 45.85 310.879 46.24 313.133 47.02C315.429 47.8 317.358 48.84 318.918 50.14C320.478 51.44 321.648 52.8267 322.428 54.3C323.251 55.73 323.684 57.1383 323.728 58.525C323.728 58.8717 323.598 59.1967 323.338 59.5C323.078 59.76 322.753 59.89 322.363 59.89H313.783C313.306 59.89 312.894 59.8033 312.548 59.63C312.201 59.4567 311.898 59.175 311.638 58.785C311.378 57.8317 310.684 57.0083 309.558 56.315C308.474 55.5783 307.044 55.21 305.268 55.21C303.361 55.21 301.866 55.5567 300.783 56.25C299.743 56.9 299.223 57.9183 299.223 59.305C299.223 60.1717 299.504 60.93 300.068 61.58C300.674 62.23 301.649 62.7933 302.993 63.27C304.379 63.7467 306.264 64.245 308.648 64.765C312.591 65.5017 315.776 66.4333 318.203 67.56C320.629 68.6433 322.406 70.0733 323.533 71.85C324.659 73.5833 325.223 75.7717 325.223 78.415C325.223 81.3617 324.378 83.9183 322.688 86.085C321.041 88.2083 318.744 89.8333 315.798 90.96C312.851 92.0867 309.471 92.65 305.658 92.65ZM333.355 92C332.878 92 332.488 91.8483 332.185 91.545C331.881 91.2417 331.73 90.8517 331.73 90.375V48.125C331.73 47.6483 331.881 47.2583 332.185 46.955C332.488 46.6517 332.878 46.5 333.355 46.5H341.74C342.216 46.5 342.606 46.6517 342.91 46.955C343.213 47.2583 343.365 47.6483 343.365 48.125V63.79H359.42V48.125C359.42 47.6483 359.571 47.2583 359.875 46.955C360.178 46.6517 360.568 46.5 361.045 46.5H369.43C369.906 46.5 370.296 46.6517 370.6 46.955C370.903 47.2583 371.055 47.6483 371.055 48.125V90.375C371.055 90.8517 370.903 91.2417 370.6 91.545C370.296 91.8483 369.906 92 369.43 92H361.045C360.568 92 360.178 91.8483 359.875 91.545C359.571 91.2417 359.42 90.8517 359.42 90.375V74.19H343.365V90.375C343.365 90.8517 343.213 91.2417 342.91 91.545C342.606 91.8483 342.216 92 341.74 92H333.355ZM377.562 92C377.216 92 376.891 91.87 376.587 91.61C376.327 91.3067 376.197 90.9817 376.197 90.635C376.197 90.4183 376.219 90.2233 376.262 90.05L391.537 48.32C391.667 47.8433 391.927 47.4317 392.317 47.085C392.751 46.695 393.336 46.5 394.072 46.5H403.692C404.429 46.5 404.992 46.695 405.382 47.085C405.816 47.4317 406.097 47.8433 406.227 48.32L421.437 90.05C421.524 90.2233 421.567 90.4183 421.567 90.635C421.567 90.9817 421.416 91.3067 421.112 91.61C420.852 91.87 420.527 92 420.137 92H412.142C411.492 92 410.994 91.8483 410.647 91.545C410.344 91.1983 410.149 90.895 410.062 90.635L407.527 84.005H390.172L387.702 90.635C387.616 90.895 387.421 91.1983 387.117 91.545C386.814 91.8483 386.294 92 385.557 92H377.562ZM392.837 74.645H404.927L398.817 57.485L392.837 74.645ZM428.316 92C427.839 92 427.449 91.8483 427.146 91.545C426.842 91.2417 426.691 90.8517 426.691 90.375V48.125C426.691 47.6483 426.842 47.2583 427.146 46.955C427.449 46.6517 427.839 46.5 428.316 46.5H436.896C437.329 46.5 437.697 46.6517 438.001 46.955C438.347 47.2583 438.521 47.6483 438.521 48.125V82.185H458.151C458.627 82.185 459.017 82.3583 459.321 82.705C459.667 83.0083 459.841 83.3983 459.841 83.875V90.375C459.841 90.8517 459.667 91.2417 459.321 91.545C459.017 91.8483 458.627 92 458.151 92H428.316Z" fill="#FF7D29"/>
<path d="M223.5 137C223.133 137 222.85 136.9 222.65 136.7C222.45 136.467 222.35 136.183 222.35 135.85V103.2C222.35 102.833 222.45 102.55 222.65 102.35C222.85 102.117 223.133 102 223.5 102H244.15C244.517 102 244.8 102.117 245 102.35C245.2 102.55 245.3 102.833 245.3 103.2V105.1C245.3 105.467 245.2 105.75 245 105.95C244.8 106.15 244.517 106.25 244.15 106.25H227.15V117.2H243.05C243.417 117.2 243.7 117.317 243.9 117.55C244.1 117.75 244.2 118.033 244.2 118.4V120.25C244.2 120.583 244.1 120.867 243.9 121.1C243.7 121.3 243.417 121.4 243.05 121.4H227.15V132.75H244.55C244.917 132.75 245.2 132.85 245.4 133.05C245.6 133.25 245.7 133.533 245.7 133.9V135.85C245.7 136.183 245.6 136.467 245.4 136.7C245.2 136.9 244.917 137 244.55 137H223.5ZM258.822 137C258.456 137 258.172 136.9 257.972 136.7C257.772 136.467 257.672 136.183 257.672 135.85V103.2C257.672 102.833 257.772 102.55 257.972 102.35C258.172 102.117 258.456 102 258.822 102H261.122C261.522 102 261.822 102.1 262.022 102.3C262.222 102.467 262.339 102.6 262.372 102.7L278.972 128.2V103.2C278.972 102.833 279.072 102.55 279.272 102.35C279.472 102.117 279.756 102 280.122 102H282.522C282.889 102 283.172 102.117 283.372 102.35C283.606 102.55 283.722 102.833 283.722 103.2V135.8C283.722 136.133 283.606 136.417 283.372 136.65C283.172 136.883 282.906 137 282.572 137H280.172C279.806 137 279.522 136.9 279.322 136.7C279.156 136.5 279.039 136.367 278.972 136.3L262.422 111.05V135.85C262.422 136.183 262.306 136.467 262.072 136.7C261.872 136.9 261.589 137 261.222 137H258.822ZM306.189 137C305.856 137 305.572 136.9 305.339 136.7C305.139 136.467 305.039 136.183 305.039 135.85V106.45H295.439C295.106 106.45 294.822 106.35 294.589 106.15C294.389 105.917 294.289 105.633 294.289 105.3V103.2C294.289 102.833 294.389 102.55 294.589 102.35C294.822 102.117 295.106 102 295.439 102H319.539C319.906 102 320.189 102.117 320.389 102.35C320.622 102.55 320.739 102.833 320.739 103.2V105.3C320.739 105.633 320.622 105.917 320.389 106.15C320.189 106.35 319.906 106.45 319.539 106.45H309.989V135.85C309.989 136.183 309.872 136.467 309.639 136.7C309.439 136.9 309.156 137 308.789 137H306.189ZM332.494 137C332.127 137 331.844 136.9 331.644 136.7C331.444 136.467 331.344 136.183 331.344 135.85V103.2C331.344 102.833 331.444 102.55 331.644 102.35C331.844 102.117 332.127 102 332.494 102H353.144C353.511 102 353.794 102.117 353.994 102.35C354.194 102.55 354.294 102.833 354.294 103.2V105.1C354.294 105.467 354.194 105.75 353.994 105.95C353.794 106.15 353.511 106.25 353.144 106.25H336.144V117.2H352.044C352.411 117.2 352.694 117.317 352.894 117.55C353.094 117.75 353.194 118.033 353.194 118.4V120.25C353.194 120.583 353.094 120.867 352.894 121.1C352.694 121.3 352.411 121.4 352.044 121.4H336.144V132.75H353.544C353.911 132.75 354.194 132.85 354.394 133.05C354.594 133.25 354.694 133.533 354.694 133.9V135.85C354.694 136.183 354.594 136.467 354.394 136.7C354.194 136.9 353.911 137 353.544 137H332.494ZM367.816 137C367.45 137 367.166 136.9 366.966 136.7C366.766 136.467 366.666 136.183 366.666 135.85V103.2C366.666 102.833 366.766 102.55 366.966 102.35C367.166 102.117 367.45 102 367.816 102H380.016C383.783 102 386.766 102.883 388.966 104.65C391.166 106.417 392.266 109.033 392.266 112.5C392.266 115.067 391.616 117.167 390.316 118.8C389.05 120.4 387.316 121.517 385.116 122.15L392.816 135.45C392.916 135.65 392.966 135.833 392.966 136C392.966 136.267 392.85 136.5 392.616 136.7C392.416 136.9 392.183 137 391.916 137H389.516C388.95 137 388.533 136.85 388.266 136.55C388 136.25 387.766 135.95 387.566 135.65L380.316 122.95H371.566V135.85C371.566 136.183 371.45 136.467 371.216 136.7C371.016 136.9 370.733 137 370.366 137H367.816ZM371.566 118.7H379.816C382.316 118.7 384.183 118.183 385.416 117.15C386.65 116.083 387.266 114.517 387.266 112.45C387.266 110.417 386.65 108.867 385.416 107.8C384.216 106.733 382.35 106.2 379.816 106.2H371.566V118.7ZM405.58 137C405.213 137 404.93 136.9 404.73 136.7C404.53 136.467 404.43 136.183 404.43 135.85V103.2C404.43 102.833 404.53 102.55 404.73 102.35C404.93 102.117 405.213 102 405.58 102H418.28C420.747 102 422.88 102.4 424.68 103.2C426.513 104 427.93 105.2 428.93 106.8C429.93 108.367 430.43 110.333 430.43 112.7C430.43 115.067 429.93 117.033 428.93 118.6C427.93 120.167 426.513 121.35 424.68 122.15C422.88 122.95 420.747 123.35 418.28 123.35H409.43V135.85C409.43 136.183 409.313 136.467 409.08 136.7C408.88 136.9 408.597 137 408.23 137H405.58ZM409.38 119.15H418.03C420.497 119.15 422.347 118.6 423.58 117.5C424.813 116.4 425.43 114.8 425.43 112.7C425.43 110.633 424.83 109.033 423.63 107.9C422.43 106.767 420.563 106.2 418.03 106.2H409.38V119.15ZM442.66 137C442.293 137 442.01 136.9 441.81 136.7C441.61 136.467 441.51 136.183 441.51 135.85V103.2C441.51 102.833 441.61 102.55 441.81 102.35C442.01 102.117 442.293 102 442.66 102H454.86C458.627 102 461.61 102.883 463.81 104.65C466.01 106.417 467.11 109.033 467.11 112.5C467.11 115.067 466.46 117.167 465.16 118.8C463.893 120.4 462.16 121.517 459.96 122.15L467.66 135.45C467.76 135.65 467.81 135.833 467.81 136C467.81 136.267 467.693 136.5 467.46 136.7C467.26 136.9 467.027 137 466.76 137H464.36C463.793 137 463.377 136.85 463.11 136.55C462.843 136.25 462.61 135.95 462.41 135.65L455.16 122.95H446.41V135.85C446.41 136.183 446.293 136.467 446.06 136.7C445.86 136.9 445.577 137 445.21 137H442.66ZM446.41 118.7H454.66C457.16 118.7 459.027 118.183 460.26 117.15C461.493 116.083 462.11 114.517 462.11 112.45C462.11 110.417 461.493 108.867 460.26 107.8C459.06 106.733 457.193 106.2 454.66 106.2H446.41V118.7ZM480.424 137C480.057 137 479.774 136.9 479.574 136.7C479.374 136.467 479.274 136.183 479.274 135.85V103.15C479.274 102.817 479.374 102.55 479.574 102.35C479.774 102.117 480.057 102 480.424 102H483.074C483.407 102 483.674 102.117 483.874 102.35C484.107 102.55 484.224 102.817 484.224 103.15V135.85C484.224 136.183 484.107 136.467 483.874 136.7C483.674 136.9 483.407 137 483.074 137H480.424ZM509.196 137.5C506.296 137.5 503.862 137.067 501.896 136.2C499.929 135.3 498.412 134.15 497.346 132.75C496.312 131.317 495.762 129.8 495.696 128.2C495.696 127.933 495.796 127.7 495.996 127.5C496.229 127.267 496.496 127.15 496.796 127.15H499.346C499.746 127.15 500.046 127.25 500.246 127.45C500.446 127.65 500.579 127.883 500.646 128.15C500.812 128.95 501.212 129.75 501.846 130.55C502.512 131.317 503.429 131.967 504.596 132.5C505.796 133 507.329 133.25 509.196 133.25C512.062 133.25 514.162 132.75 515.496 131.75C516.862 130.717 517.546 129.35 517.546 127.65C517.546 126.483 517.179 125.55 516.446 124.85C515.746 124.117 514.662 123.467 513.196 122.9C511.729 122.333 509.829 121.717 507.496 121.05C505.062 120.35 503.046 119.583 501.446 118.75C499.846 117.917 498.646 116.883 497.846 115.65C497.079 114.417 496.696 112.85 496.696 110.95C496.696 109.15 497.179 107.55 498.146 106.15C499.112 104.717 500.496 103.583 502.296 102.75C504.129 101.917 506.346 101.5 508.946 101.5C511.012 101.5 512.812 101.783 514.346 102.35C515.912 102.883 517.212 103.617 518.246 104.55C519.279 105.45 520.062 106.433 520.596 107.5C521.129 108.533 521.412 109.55 521.446 110.55C521.446 110.783 521.362 111.017 521.196 111.25C521.029 111.45 520.762 111.55 520.396 111.55H517.746C517.512 111.55 517.262 111.483 516.996 111.35C516.762 111.217 516.579 110.967 516.446 110.6C516.246 109.233 515.479 108.083 514.146 107.15C512.812 106.217 511.079 105.75 508.946 105.75C506.779 105.75 505.012 106.167 503.646 107C502.312 107.833 501.646 109.133 501.646 110.9C501.646 112.033 501.962 112.983 502.596 113.75C503.229 114.483 504.229 115.133 505.596 115.7C506.962 116.267 508.746 116.867 510.946 117.5C513.612 118.233 515.796 119.017 517.496 119.85C519.196 120.65 520.446 121.667 521.246 122.9C522.079 124.1 522.496 125.65 522.496 127.55C522.496 129.65 521.946 131.45 520.846 132.95C519.746 134.417 518.196 135.55 516.196 136.35C514.229 137.117 511.896 137.5 509.196 137.5ZM535.199 137C534.833 137 534.549 136.9 534.349 136.7C534.149 136.467 534.049 136.183 534.049 135.85V103.2C534.049 102.833 534.149 102.55 534.349 102.35C534.549 102.117 534.833 102 535.199 102H555.849C556.216 102 556.499 102.117 556.699 102.35C556.899 102.55 556.999 102.833 556.999 103.2V105.1C556.999 105.467 556.899 105.75 556.699 105.95C556.499 106.15 556.216 106.25 555.849 106.25H538.849V117.2H554.749C555.116 117.2 555.399 117.317 555.599 117.55C555.799 117.75 555.899 118.033 555.899 118.4V120.25C555.899 120.583 555.799 120.867 555.599 121.1C555.399 121.3 555.116 121.4 554.749 121.4H538.849V132.75H556.249C556.616 132.75 556.899 132.85 557.099 133.05C557.299 133.25 557.399 133.533 557.399 133.9V135.85C557.399 136.183 557.299 136.467 557.099 136.7C556.899 136.9 556.616 137 556.249 137H535.199Z" fill="#FF7D29"/>
<line x1="211.06" y1="136.787" x2="211.06" y2="48.0382" stroke="#FF7D29"/>
</svg>
