<svg width="200" height="63" viewBox="0 0 200 63" fill="none" xmlns="http://www.w3.org/2000/svg">
<path d="M25.4169 5.86167C24.9189 4.52981 24.8975 3.4673 25.3548 2.67414C25.81 1.88318 26.7044 1.4866 28.033 1.4866H31.1482V0.236816H0V1.4866H3.11466C5.02474 1.4866 6.41709 1.92339 7.2884 2.79917C8.16081 3.67441 8.80318 4.69561 9.21989 5.86167L29.6532 62.7348L47.1311 62.6918L41.6144 50.8605L25.4169 5.86167Z" fill="#FF6700"/>
<path d="M83.9195 46.5058H44.4007L47.2047 39.4631H71.025V23.3691H52.6016L55.0536 16.452H83.9162V0.357994L51.7062 0.236816V1.4866H54.8208C56.1489 1.4866 57.0208 1.88318 57.4375 2.67414C57.577 2.94128 57.6654 3.24202 57.7115 3.57031L41.6144 50.8605L47.1316 62.6913L83.9195 62.6004V46.5058Z" fill="#FF6700"/>
<path d="M98 51.9883L97.97 51.9583L96.05 51.5533V41.9833H102.455L103.655 43.3333H98.12V46.2133H101.855L103.055 47.5633H98.135V50.6383H103.055L104.255 51.9883H98ZM115.308 42.5983V52.4233L113.208 51.9883L108.348 45.1183L108.378 52.4233L106.278 51.9883V41.9983L108.348 42.5983L113.208 49.3933V41.9983L115.308 42.5983ZM118.31 43.3333L117.11 41.9833H125.615L126.815 43.3333H123.2L123.23 52.4233L121.13 51.9883V43.3333H118.31ZM130.572 51.9883L130.542 51.9583L128.622 51.5533V41.9833H135.027L136.227 43.3333H130.692V46.2133H134.427L135.627 47.5633H130.707V50.6383H135.627L136.827 51.9883H130.572ZM144.955 48.8683C144.865 48.6983 144.635 48.4533 144.265 48.1333C143.295 48.4933 142.185 48.5333 140.935 48.2533L140.95 52.4233L138.85 51.9883V41.9533C139.76 41.7033 140.775 41.5383 141.895 41.4583C143.025 41.3783 143.735 41.4383 144.025 41.6383C144.325 41.9083 144.795 42.3633 145.435 43.0033C146.075 43.6433 146.52 44.1083 146.77 44.3983C147.03 44.7183 147 45.2383 146.68 45.9583C146.37 46.6783 145.835 47.2733 145.075 47.7433C146.135 48.1933 146.71 48.4683 146.8 48.5683C146.93 48.7583 147.02 48.9783 147.07 49.2283C147.13 49.4683 147.16 49.6733 147.16 49.8433C147.16 50.0133 147.15 50.2533 147.13 50.5633C147.11 50.8733 147.1 51.0833 147.1 51.1933C147.1 51.2933 147.09 51.4483 147.07 51.6583C147.06 51.8583 147.055 52.0083 147.055 52.1083C147.055 52.2083 147.07 52.3333 147.1 52.4833C147.13 52.6433 147.18 52.7683 147.25 52.8583C147.32 52.9483 147.425 53.0433 147.565 53.1433C147.705 53.2433 147.885 53.3283 148.105 53.3983C147.315 53.5583 146.655 53.4283 146.125 53.0083C145.605 52.5983 145.32 51.9933 145.27 51.1933C145.27 51.1333 145.26 50.9483 145.24 50.6383C145.23 50.3283 145.215 50.1033 145.195 49.9633C145.185 49.8233 145.16 49.6433 145.12 49.4233C145.08 49.1933 145.025 49.0083 144.955 48.8683ZM144.7 43.3333C144.11 42.7733 142.85 42.6933 140.92 43.0933L140.935 47.2933C141.635 47.3033 142.265 47.2033 142.825 46.9933C143.395 46.7733 143.83 46.4983 144.13 46.1683C144.43 45.8283 144.66 45.4733 144.82 45.1033C144.98 44.7333 145.045 44.3883 145.015 44.0683C144.985 43.7483 144.88 43.5033 144.7 43.3333ZM149.78 51.9883V41.9533C150.69 41.7033 151.705 41.5383 152.825 41.4583C153.955 41.3783 154.665 41.4383 154.955 41.6383C155.255 41.9083 155.725 42.3633 156.365 43.0033C157.005 43.6433 157.45 44.1083 157.7 44.3983C157.85 44.5783 157.89 44.8833 157.82 45.3133C157.75 45.7333 157.575 46.1783 157.295 46.6483C157.015 47.1083 156.625 47.5383 156.125 47.9383C155.625 48.3283 155.02 48.5883 154.31 48.7183C153.6 48.8383 152.785 48.7633 151.865 48.4933L151.88 52.4233L149.78 51.9883ZM155.6 43.3183C155.07 42.7283 153.82 42.6233 151.85 43.0033L151.865 47.7883C152.585 47.8683 153.225 47.7983 153.785 47.5783C154.345 47.3483 154.77 47.0383 155.06 46.6483C155.35 46.2583 155.565 45.8433 155.705 45.4033C155.855 44.9533 155.915 44.5383 155.885 44.1583C155.855 43.7783 155.76 43.4983 155.6 43.3183ZM166.377 48.8683C166.287 48.6983 166.057 48.4533 165.687 48.1333C164.717 48.4933 163.607 48.5333 162.357 48.2533L162.372 52.4233L160.272 51.9883V41.9533C161.182 41.7033 162.197 41.5383 163.317 41.4583C164.447 41.3783 165.157 41.4383 165.447 41.6383C165.747 41.9083 166.217 42.3633 166.857 43.0033C167.497 43.6433 167.942 44.1083 168.192 44.3983C168.452 44.7183 168.422 45.2383 168.102 45.9583C167.792 46.6783 167.257 47.2733 166.497 47.7433C167.557 48.1933 168.132 48.4683 168.222 48.5683C168.352 48.7583 168.442 48.9783 168.492 49.2283C168.552 49.4683 168.582 49.6733 168.582 49.8433C168.582 50.0133 168.572 50.2533 168.552 50.5633C168.532 50.8733 168.522 51.0833 168.522 51.1933C168.522 51.2933 168.512 51.4483 168.492 51.6583C168.482 51.8583 168.477 52.0083 168.477 52.1083C168.477 52.2083 168.492 52.3333 168.522 52.4833C168.552 52.6433 168.602 52.7683 168.672 52.8583C168.742 52.9483 168.847 53.0433 168.987 53.1433C169.127 53.2433 169.307 53.3283 169.527 53.3983C168.737 53.5583 168.077 53.4283 167.547 53.0083C167.027 52.5983 166.742 51.9933 166.692 51.1933C166.692 51.1333 166.682 50.9483 166.662 50.6383C166.652 50.3283 166.637 50.1033 166.617 49.9633C166.607 49.8233 166.582 49.6433 166.542 49.4233C166.502 49.1933 166.447 49.0083 166.377 48.8683ZM166.122 43.3333C165.532 42.7733 164.272 42.6933 162.342 43.0933L162.357 47.2933C163.057 47.3033 163.687 47.2033 164.247 46.9933C164.817 46.7733 165.252 46.4983 165.552 46.1683C165.852 45.8283 166.082 45.4733 166.242 45.1033C166.402 44.7333 166.467 44.3883 166.437 44.0683C166.407 43.7483 166.302 43.5033 166.122 43.3333ZM173.422 42.6133L173.452 52.4233L171.202 51.9883V41.9983L173.422 42.6133ZM184.013 44.0833C183.593 43.9233 183.183 43.7933 182.783 43.6933C182.393 43.5933 181.948 43.5383 181.448 43.5283C180.958 43.5083 180.523 43.5683 180.143 43.7083C179.763 43.8483 179.418 44.1183 179.108 44.5183C178.798 44.9083 178.593 45.4233 178.493 46.0633C178.473 46.1733 178.853 46.2083 179.633 46.1683C180.413 46.1183 181.173 46.0633 181.913 46.0033C182.653 45.9433 183.163 45.9883 183.443 46.1383C184.433 47.0183 185.128 47.8333 185.528 48.5833C185.728 48.9433 185.643 49.4633 185.273 50.1433C184.803 50.9933 184.123 51.6183 183.233 52.0183C181.663 52.7383 179.943 52.4733 178.073 51.2233C177.313 50.7133 176.548 50.0383 175.778 49.1983L176.228 48.9733C176.808 49.2833 177.273 49.5233 177.623 49.6933C177.983 49.8633 178.433 50.0383 178.973 50.2183C179.513 50.3883 179.988 50.4783 180.398 50.4883C181.348 50.5083 182.128 50.2783 182.738 49.7983C183.348 49.3083 183.693 48.6483 183.773 47.8183C183.783 47.7283 183.423 47.7433 182.693 47.8633C181.963 47.9733 181.228 48.0733 180.488 48.1633C179.748 48.2533 179.188 48.1833 178.808 47.9533C178.408 47.6333 177.783 47.0033 176.933 46.0633C176.663 45.7333 176.523 45.3783 176.513 44.9983C176.503 44.6183 176.628 44.2333 176.888 43.8433C177.148 43.4533 177.468 43.1033 177.848 42.7933C178.228 42.4833 178.673 42.2283 179.183 42.0283C179.703 41.8283 180.218 41.7283 180.728 41.7283C180.858 41.7283 181.103 41.8133 181.463 41.9833C181.823 42.1433 182.318 42.3883 182.948 42.7183C183.588 43.0483 184.008 43.2633 184.208 43.3633L184.013 44.0833ZM189.887 51.9883L189.857 51.9583L187.937 51.5533V41.9833H194.342L195.542 43.3333H190.007V46.2133H193.742L194.942 47.5633H190.022V50.6383H194.942L196.142 51.9883H189.887Z" fill="#0D0D0D"/>
<path d="M101.675 24.9368L101.7 24.8868L95 8.58682L98.475 9.31182L103.125 20.9618L107.675 8.58682L111.425 9.31182L105.375 25.9618L101.675 24.9368ZM119.137 9.61182L119.187 25.9618L115.437 25.2368V8.58682L119.137 9.61182ZM138.038 12.0618C137.338 11.7951 136.654 11.5785 135.988 11.4118C135.338 11.2451 134.596 11.1535 133.763 11.1368C132.946 11.1035 132.221 11.2035 131.588 11.4368C130.954 11.6701 130.379 12.1201 129.862 12.7868C129.346 13.4368 129.004 14.2951 128.838 15.3618C128.804 15.5451 129.438 15.6035 130.738 15.5368C132.038 15.4535 133.304 15.3618 134.538 15.2618C135.771 15.1618 136.621 15.2368 137.088 15.4868C138.738 16.9535 139.896 18.3118 140.563 19.5618C140.896 20.1618 140.754 21.0285 140.138 22.1618C139.354 23.5785 138.221 24.6201 136.738 25.2868C134.121 26.4868 131.254 26.0451 128.138 23.9618C126.871 23.1118 125.596 21.9868 124.313 20.5868L125.063 20.2118C126.029 20.7285 126.804 21.1285 127.388 21.4118C127.988 21.6951 128.738 21.9868 129.638 22.2868C130.538 22.5701 131.329 22.7201 132.013 22.7368C133.596 22.7701 134.896 22.3868 135.913 21.5868C136.929 20.7701 137.504 19.6701 137.638 18.2868C137.654 18.1368 137.054 18.1618 135.838 18.3618C134.621 18.5451 133.396 18.7118 132.163 18.8618C130.929 19.0118 129.996 18.8951 129.363 18.5118C128.696 17.9785 127.654 16.9285 126.238 15.3618C125.788 14.8118 125.554 14.2201 125.538 13.5868C125.521 12.9535 125.729 12.3118 126.163 11.6618C126.596 11.0118 127.129 10.4285 127.763 9.91182C128.396 9.39515 129.138 8.97015 129.988 8.63682C130.854 8.30348 131.713 8.13682 132.563 8.13682C132.779 8.13682 133.188 8.27848 133.788 8.56182C134.388 8.82848 135.213 9.23682 136.263 9.78682C137.329 10.3368 138.029 10.6951 138.363 10.8618L138.038 12.0618ZM149.277 9.58682L149.302 16.5868L157.377 16.1368V8.58682L160.877 9.58682V25.9618L157.377 25.2368V18.2618L149.302 18.7118L149.327 25.9618L145.827 25.2368V8.58682L149.277 9.58682ZM174.882 9.61182L174.857 9.68682L181.557 25.9618L178.332 25.2368L176.582 20.6618L170.682 21.0618L168.882 25.9618L165.382 25.2368L171.432 8.58682L174.882 9.61182ZM173.632 12.9868L171.482 18.8868L175.782 18.5868L173.632 12.9868ZM189.263 9.58682L189.288 22.9868H196.988L198.988 25.2368H189.313L185.813 24.5118V8.56182L189.263 9.58682Z" fill="#0D0D0D"/>
<line x1="95" y1="32.732" x2="198.795" y2="32.732" stroke="black" stroke-width="1.26149"/>
</svg>
