<svg width="100" height="50" viewBox="0 0 100 50" fill="none" xmlns="http://www.w3.org/2000/svg">
<g clip-path="url(#clip0_1_12)">
<path d="M27 45L3 5H22.5L38 35.5L53 5H97L92 12L67 12.5L62.5 20.5H84.5L79.5 28H58L50.5 38.5L77 38L72 45H27Z" stroke="#FF7D29" stroke-width="2"/>
<path d="M4 5.5L22.5 5L40.5593 38.6258L77.5 37.5L72.5 45L27.5 44.5L4 5.5Z" fill="#FF7D29"/>
<path d="M53 4.49997L70.5 9.5L49.5001 43.5L35.5001 38.5L53 4.49997Z" fill="#FF7D29"/>
<path d="M97.5001 4.5L92.5 12.5L56.5 13.5L54 4.5L97.5001 4.5Z" fill="#FF7D29"/>
<path d="M84.5 21L79.5 28L56.4124 27.5129L54.9999 19L84.5 21Z" fill="#FF7D29"/>
</g>
<defs>
<clipPath id="clip0_1_12">
<rect width="100" height="50" fill="white"/>
</clipPath>
</defs>
</svg>
