<svg width="300" height="173" viewBox="0 0 300 173" fill="none" xmlns="http://www.w3.org/2000/svg">
<path d="M81.4055 97.8387C81.4055 97.8387 106.364 93.4103 106.855 143.317C106.935 151.413 111.434 166.51 111.434 166.51H88.8115L81.4055 97.8387Z" fill="#FFC299"/>
<path d="M55.3056 93.4103L40.2217 97.4963L44.8272 166.51H103.524C103.524 166.51 101.553 111.908 79.4214 95.5256L55.3056 93.4103Z" fill="#FFC299"/>
<path d="M40.2216 97.4963C24.6731 101.559 28.3098 115.248 31.3159 143.348C23.5583 150.576 30.9974 153.825 30.9974 153.825C22.4766 164.181 33.1077 166.51 33.1077 166.51H61.4905C61.4971 166.51 55.7834 93.4255 40.2216 97.4963Z" fill="#FFC299"/>
<path d="M59.8048 150.569L52.9961 114.715" stroke="#FF6700" stroke-miterlimit="10"/>
<path d="M33.1077 166.51C33.1077 166.51 37.899 153.894 53.0493 147.548C65.6048 142.29 83.9803 155.941 95.7396 142.967L97.9162 157.569L61.4971 166.502H33.1077V166.51Z" fill="#E9A394"/>
<path d="M83.038 57.8688L94.2663 77.4695L87.0661 80.4142L85.8185 96.3473L64.1648 87.7188L66.2021 55.3198L83.038 57.8688Z" fill="#E9A394"/>
<path d="M66.3745 78.4587L55.3054 93.4103L69.5068 113.361L75.904 90.0623L66.3745 78.4587Z" fill="#E37A82"/>
<path d="M70.0775 69.1986L85.918 62.8983L83.0379 57.8688L67.3899 59.733L70.0775 69.1986Z" fill="#E37A82"/>
<path d="M68.7105 76.0618C68.7105 76.0618 73.5084 87.072 70.1704 65.8506C70.1704 65.8506 74.7228 66.4365 78.2864 59.5504C78.2864 59.5504 77.1782 70.7736 87.6368 59.5504C98.0953 48.3272 84.8031 39.5464 68.5579 42.8487C54.4826 45.7097 40.3941 54.8328 60.9794 85.748L68.7105 76.0618Z" fill="#263238"/>
<path d="M66.149 80.437C65.0673 82.0958 63.2092 83.6023 61.2847 83.9295C57.4225 84.5763 53.6532 81.0838 53.0957 76.6553C52.5317 72.2269 54.4827 69.929 58.3449 69.2899C60.515 68.9246 63.0234 69.6627 64.9081 71.1693C65.4721 71.9758 66.149 80.437 66.149 80.437Z" fill="#E9A394"/>
<path d="M81.4274 74.3241C82.004 74.1447 82.1811 72.773 81.8231 71.2602C81.465 69.7474 80.7074 68.6665 80.1309 68.8459C79.5543 69.0253 79.3772 70.3971 79.7352 71.9099C80.0932 73.4226 80.8509 74.5035 81.4274 74.3241Z" fill="#FF6700"/>
<path d="M77.0323 67.7376C77.0323 67.7376 76.4682 64.1006 79.4146 65.8506L77.0323 67.7376Z" fill="#FFE1D0"/>
<path d="M53.5337 94.0266L56.1085 90.6406L55.1595 88.1297L60.9794 85.748L77.6693 95.3734L78.2865 102.724L75.4595 101.696L70.8474 121.404L53.5337 94.0266Z" fill="#FFC299"/>
<path d="M68.6042 98.8355L78.2864 102.724L77.6692 95.3734" stroke="#FF6700" stroke-miterlimit="10"/>
<path d="M70.1705 65.8506C70.1705 65.8506 72.1149 78.8467 74.9684 81.5175C75.9041 82.3925 77.676 80.1631 85.8185 79.9729C90.8023 79.8587 90.7956 99.7942 84.186 99.2235C77.5764 98.6529 67.5293 93.9277 66.0229 79.3946C64.7023 66.6419 70.1705 65.8506 70.1705 65.8506Z" fill="#263238"/>
<path d="M78.2864 83.9295C78.2864 83.9295 79.9653 87.5133 83.2768 85.0861" stroke="#C4C6C5" stroke-miterlimit="10"/>
<path d="M116.066 158.307H60.3425V163.04C60.3425 164.957 61.6963 166.51 63.3686 166.51H116.066C117.739 166.51 119.092 164.957 119.092 163.04V161.777C119.092 159.859 117.739 158.307 116.066 158.307Z" fill="#FF6700"/>
<path d="M161.318 110.85H96.4962C94.5717 110.85 92.9458 112.494 92.7003 114.685L87.4776 161.564C87.1856 164.189 88.9708 166.51 91.2735 166.51H156.095C158.02 166.51 159.646 164.866 159.891 162.675L165.114 115.796C165.412 113.171 163.627 110.85 161.318 110.85Z" fill="#FF6700"/>
<path d="M164.457 110.85H99.6348C97.7103 110.85 96.0845 112.494 95.8389 114.685L90.6163 161.564C90.3243 164.189 92.1094 166.51 94.4122 166.51H159.234C161.158 166.51 162.784 164.866 163.03 162.675L168.253 115.796C168.545 113.171 166.766 110.85 164.457 110.85Z" fill="#FFC299"/>
<path d="M133.61 143.722C136.309 140.786 136.627 136.147 134.321 133.361C132.016 130.575 127.959 130.696 125.261 133.632C122.562 136.568 122.244 141.206 124.549 143.992C126.855 146.779 130.912 146.657 133.61 143.722Z" fill="#FF6700"/>
<path d="M163.044 166.114H82.3613" stroke="#FFC299" stroke-miterlimit="10"/>
<path d="M198.699 103.378L225.483 103.964L219.411 66.3985L205.17 68.2474C205.17 68.2474 198.753 79.1054 203.823 87.5438C209.536 97.0626 198.115 97.4126 198.699 103.378Z" fill="#263238"/>
<path d="M205.17 68.2398C205.17 68.2398 198.753 79.0978 203.823 87.5362C209.536 97.0626 198.115 97.4126 198.699 103.378" stroke="#263238" stroke-width="2" stroke-miterlimit="10"/>
<path d="M210.512 98.8355C210.512 98.8355 198.328 112.547 191.897 164.219H205.462L210.512 98.8355Z" fill="#FF6700"/>
<path d="M242.724 95.0158L237.421 164.219H198.022L202.927 137.786C202.927 137.786 187.929 128.815 210.518 98.8355L216.132 95.5256L240.527 93.4103L242.724 95.0158Z" fill="#FFC299"/>
<path d="M210.512 129.812C210.512 129.812 208.149 134.453 210.419 138.174L207.074 164.227" stroke="#FF6700" stroke-miterlimit="10"/>
<path d="M205.01 137.907L227.825 138.684" stroke="#FF6700" stroke-miterlimit="10"/>
<path d="M232.324 150.934L229.916 117.652" stroke="#FF6700" stroke-miterlimit="10"/>
<path d="M242.723 95.0158C242.723 95.0158 244.9 98.1507 247.415 105.432C250.985 115.75 255.246 134.4 254.967 164.219H237.415L242.723 95.0158Z" fill="#FFC299"/>
<path d="M254.967 166.502C254.967 166.502 246.201 143.508 224.142 150.089C200.06 157.272 191.114 155.933 191.114 155.933L189.289 166.502H254.967Z" fill="#E9A394"/>
<path d="M232.012 145.258L224.188 147.266L241.967 166.51H258.723C258.716 166.502 251.496 146.43 232.012 145.258Z" fill="#FF6700"/>
<path d="M232.497 151.223L236.227 149.914" stroke="#FFC299" stroke-miterlimit="10"/>
<path d="M191.121 155.933L179.673 153.217L171.471 166.502H189.289L191.121 155.933Z" fill="#E9A394"/>
<path d="M210.512 129.812L231.781 105.425L227.825 103.287L242.724 95.0158L235.882 90.0243H219.968L210.512 103.576L213.126 104.322L210.512 106.422V129.812Z" fill="#FF6700"/>
<path d="M225.383 98.3181L232.325 92.8092L224.826 73.5889L213.206 81.9588L216.478 97.9072L210.512 129.812L225.383 98.3181Z" fill="#E9A394"/>
<path d="M214.142 86.509L222.297 81.6316L215.018 90.77L214.142 86.509Z" fill="#E37A82"/>
<path d="M199.237 58.6754L195.68 81.312H201.022L207.021 90.77L222.297 81.6316L211.613 54.3383L199.237 58.6754Z" fill="#E9A394"/>
<path d="M198.374 64.169L198.016 66.6496L212.111 64.4506L211.892 61.3537L198.374 64.169Z" fill="#E37A82"/>
<path d="M238.184 56.9558C234.654 45.9912 230.347 41.7683 230.347 41.7683C221.7 31.9223 206.928 42.8487 206.928 42.8487C187.995 37.5909 195.68 64.5495 195.68 64.5495L211.102 62.3809C213.259 77.2108 220.97 69.7008 220.97 69.7008L224.567 77.1347C224.567 77.1347 220.937 80.8098 224.72 87.1177C227.832 92.307 220.373 94.0799 222.304 99.604L252.107 92.52C252.1 70.0279 244.562 76.7695 238.184 56.9558Z" fill="#263238"/>
<path d="M194.472 64.7245C194.472 64.7245 191.745 49.3392 196.755 44.3249C199.369 41.715 207.592 42.8487 207.592 42.8487" stroke="#263238" stroke-width="2" stroke-miterlimit="10"/>
<path d="M254.058 91.8657C254.058 91.8657 256.44 81.6316 243.467 70.0279" stroke="#263238" stroke-width="2" stroke-miterlimit="10"/>
<path d="M221.408 78.0934C224.956 78.0934 227.832 74.7958 227.832 70.728C227.832 66.6601 224.956 63.3625 221.408 63.3625C217.86 63.3625 214.984 66.6601 214.984 70.728C214.984 74.7958 217.86 78.0934 221.408 78.0934Z" fill="#E9A394"/>
<path d="M205.01 80.4827L208.992 79.3641C208.985 79.3565 210.386 92.3755 205.01 80.4827Z" fill="white"/>
<path d="M201.692 72.79C201.692 72.79 202.96 63.9332 205.734 72.79" stroke="#FF6700" stroke-width="0.5" stroke-miterlimit="10"/>
<path d="M202.674 66.0561C202.674 66.0561 204.214 63.0581 206.045 66.0561H202.674Z" fill="#FFE1D0"/>
<path d="M162.738 40.7801C160.429 33.4146 153.169 29.7319 146.805 32.8744C141.33 35.5832 138.423 42.7051 140.122 49.2641C141.071 52.9316 143.215 55.7621 145.902 57.4209C148.384 58.9503 150.508 61.1264 152.067 63.8124L152.519 64.5885L161.438 60.9134L161.351 59.9927C161.059 56.7285 161.557 53.4642 162.606 50.413C163.634 47.4303 163.76 44.0291 162.738 40.7801Z" fill="#C3C8FF"/>
<path d="M162.738 40.7801C160.429 33.4146 153.169 29.7319 146.805 32.8744C141.33 35.5832 138.423 42.7051 140.122 49.2641C141.071 52.9316 143.215 55.7621 145.902 57.4209C148.384 58.9503 150.508 61.1264 152.067 63.8124L152.519 64.5885L161.438 60.9134L161.351 59.9927C161.059 56.7285 161.557 53.4642 162.606 50.413C163.634 47.4303 163.76 44.0291 162.738 40.7801Z" fill="#FF6700"/>
<path d="M154.562 61.5677L147.455 50.0782C147.455 50.0782 147.588 47.7499 149.818 48.1227C152.047 48.4956 153.381 52.5283 151.788 51.8739C150.196 51.2196 149.632 46.4792 152.645 45.7563C155.657 45.0335 156.666 52.8783 155 51.3641C153.335 49.8499 153.686 44.8585 156.912 44.8128L158.803 61.3927" stroke="white" stroke-miterlimit="10"/>
<path d="M161.232 68.7658L157.045 70.4931C155.452 71.1474 153.7 70.2039 153.123 68.3778L152.24 65.5548C151.669 63.7287 152.492 61.7199 154.085 61.058L158.272 59.3307C159.865 58.6763 161.617 59.6199 162.194 61.446L163.077 64.2689C163.648 66.0951 162.825 68.1115 161.232 68.7658Z" fill="#FF6700"/>
<path d="M162.218 56.7752L149.61 61.9723L151.824 69.0321L164.432 63.835L162.218 56.7752Z" fill="#FFC299"/>
<path d="M151.238 28.2709L149.977 20" stroke="#FFC299" stroke-miterlimit="10"/>
<path d="M142.146 33.1939L136.127 26.4448" stroke="#FFC299" stroke-miterlimit="10"/>
<path d="M135.868 45.452L129 46.015" stroke="#FFC299" stroke-miterlimit="10"/>
<path d="M161.146 32.7983L164.238 26.2241" stroke="#FFC299" stroke-miterlimit="10"/>
<path d="M237.965 39.0671H280.589C282.069 39.0671 283.489 37.6899 283.761 35.9931L288.168 8.12905C288.433 6.43225 287.451 5.05503 285.971 5.05503H243.347C241.867 5.05503 240.447 6.43225 240.175 8.12905L235.769 35.9931C235.497 37.6899 236.485 39.0671 237.965 39.0671Z" fill="#FF6700"/>
<path d="M272.138 24.2297C273.382 22.926 273.622 20.9034 272.673 19.712C271.724 18.5206 269.945 18.6116 268.701 19.9153C267.456 21.219 267.216 23.2416 268.165 24.433C269.114 25.6244 270.893 25.5333 272.138 24.2297Z" fill="white"/>
<path d="M263.676 24.2253C264.92 22.9217 265.16 20.8991 264.211 19.7077C263.262 18.5163 261.483 18.6073 260.239 19.911C258.994 21.2146 258.754 23.2372 259.703 24.4286C260.653 25.62 262.431 25.529 263.676 24.2253Z" fill="white"/>
<path d="M255.208 24.2262C256.453 22.9226 256.693 20.8999 255.744 19.7086C254.795 18.5172 253.016 18.6082 251.771 19.9118C250.527 21.2155 250.287 23.2381 251.236 24.4295C252.185 25.6209 253.964 25.5299 255.208 24.2262Z" fill="white"/>
<path d="M260.907 37.2333L246.095 47.3304L248.749 36.442L260.907 37.2333Z" fill="#FF6700"/>
<path d="M100.657 34.9354H58.0332C56.5533 34.9354 55.1332 33.5582 54.8611 31.8614L50.4547 3.99738C50.1892 2.30058 51.1714 0.923363 52.6512 0.923363H95.2752C96.755 0.923363 98.1752 2.30058 98.4473 3.99738L102.854 31.8614C103.119 33.5582 102.137 34.9354 100.657 34.9354Z" fill="#FF6700"/>
<path d="M70.4402 20.2855C71.3893 19.0941 71.1497 17.0715 69.905 15.7678C68.6603 14.4642 66.8818 14.3731 65.9327 15.5645C64.9835 16.7559 65.2232 18.7785 66.4679 20.0822C67.7126 21.3859 69.491 21.4769 70.4402 20.2855Z" fill="white"/>
<path d="M78.9026 20.29C79.8517 19.0986 79.6121 17.076 78.3674 15.7724C77.1227 14.4687 75.3442 14.3777 74.3951 15.5691C73.4459 16.7605 73.6856 18.7831 74.9303 20.0867C76.175 21.3904 77.9534 21.4814 78.9026 20.29Z" fill="white"/>
<path d="M87.3694 20.289C88.3185 19.0976 88.0789 17.0749 86.8342 15.7713C85.5895 14.4676 83.811 14.3766 82.8619 15.568C81.9127 16.7594 82.1523 18.782 83.3971 20.0857C84.6418 21.3893 86.4202 21.4803 87.3694 20.289Z" fill="white"/>
<path d="M85.4536 33.1093L87.7895 42.8487L97.246 32.4245L85.4536 33.1093Z" fill="#FF6700"/>
<path d="M297.173 173H2.827C1.2675 173 0 171.547 0 169.759C0 167.97 1.2675 166.517 2.827 166.517H300V169.759C300 171.547 298.732 173 297.173 173Z" fill="#FFC299"/>
<path d="M108.607 173H2.827C1.2675 173 0 171.547 0 169.759V166.517H111.434V169.759C111.434 171.547 110.167 173 108.607 173Z" fill="#FF6700"/>
</svg>
