<svg width="256" height="83" viewBox="0 0 256 83" fill="none" xmlns="http://www.w3.org/2000/svg">
<path d="M26 62.9514L2 22.9514H21.5L37 53.4514L52 22.9514H96L91 29.9514L66 30.4514L61.5 38.4514H83.5L78.5 45.9514H57L49.5 56.4514L76 55.9514L71 62.9514H26Z" stroke="#FF7D29" stroke-width="2"/>
<path d="M3 23.4514L21.5 22.9514L39.5593 56.5772L76.5 55.4514L71.5 62.9514L26.5 62.4514L3 23.4514Z" fill="#FF7D29"/>
<path d="M52 22.4514L69.5 27.4514L48.5001 61.4515L34.5001 56.4515L52 22.4514Z" fill="#FF7D29"/>
<path d="M96.5001 22.4514L91.5 30.4514L55.5 31.4514L53 22.4514L96.5001 22.4514Z" fill="#FF7D29"/>
<path d="M83.5 38.9514L78.5 45.9514L55.4124 45.4643L53.9999 36.9514L83.5 38.9514Z" fill="#FF7D29"/>
<path d="M111.75 38.9514C111.467 38.9514 111.242 38.8764 111.075 38.7264C110.908 38.5764 110.792 38.4014 110.725 38.2014L105.625 22.2014C105.592 22.1181 105.575 22.0431 105.575 21.9764C105.575 21.8431 105.625 21.7264 105.725 21.6264C105.842 21.5098 105.975 21.4514 106.125 21.4514H109.225C109.492 21.4514 109.7 21.5264 109.85 21.6764C110 21.8264 110.092 21.9681 110.125 22.1014L113.65 33.6514L117.2 22.1014C117.25 21.9681 117.342 21.8264 117.475 21.6764C117.625 21.5264 117.833 21.4514 118.1 21.4514H121.2C121.35 21.4514 121.475 21.5098 121.575 21.6264C121.692 21.7264 121.75 21.8431 121.75 21.9764C121.75 22.0431 121.733 22.1181 121.7 22.2014L116.6 38.2014C116.533 38.4014 116.417 38.5764 116.25 38.7264C116.1 38.8764 115.875 38.9514 115.575 38.9514H111.75ZM124.709 38.9514C124.526 38.9514 124.376 38.8931 124.259 38.7764C124.142 38.6598 124.084 38.5098 124.084 38.3264V22.0764C124.084 21.8931 124.142 21.7431 124.259 21.6264C124.376 21.5098 124.526 21.4514 124.709 21.4514H128.059C128.242 21.4514 128.392 21.5098 128.509 21.6264C128.626 21.7431 128.684 21.8931 128.684 22.0764V38.3264C128.684 38.5098 128.626 38.6598 128.509 38.7764C128.392 38.8931 128.242 38.9514 128.059 38.9514H124.709ZM138.714 39.2014C137.048 39.2014 135.664 38.9681 134.564 38.5014C133.464 38.0181 132.631 37.3931 132.064 36.6264C131.498 35.8598 131.198 35.0431 131.164 34.1764C131.164 34.0431 131.214 33.9264 131.314 33.8264C131.431 33.7098 131.564 33.6514 131.714 33.6514H134.864C135.098 33.6514 135.273 33.6931 135.389 33.7764C135.523 33.8598 135.639 33.9681 135.739 34.1014C135.873 34.3514 136.056 34.5931 136.289 34.8264C136.539 35.0598 136.856 35.2514 137.239 35.4014C137.639 35.5348 138.131 35.6014 138.714 35.6014C139.681 35.6014 140.406 35.4514 140.889 35.1514C141.389 34.8514 141.639 34.4431 141.639 33.9264C141.639 33.5598 141.506 33.2598 141.239 33.0264C140.973 32.7764 140.539 32.5598 139.939 32.3764C139.356 32.1764 138.573 31.9764 137.589 31.7764C136.323 31.5098 135.239 31.1681 134.339 30.7514C133.456 30.3181 132.781 29.7598 132.314 29.0764C131.848 28.3764 131.614 27.5098 131.614 26.4764C131.614 25.4598 131.898 24.5514 132.464 23.7514C133.048 22.9514 133.856 22.3264 134.889 21.8764C135.923 21.4264 137.148 21.2014 138.564 21.2014C139.714 21.2014 140.723 21.3514 141.589 21.6514C142.473 21.9514 143.214 22.3514 143.814 22.8514C144.414 23.3514 144.864 23.8848 145.164 24.4514C145.481 25.0014 145.648 25.5431 145.664 26.0764C145.664 26.2098 145.614 26.3348 145.514 26.4514C145.414 26.5514 145.289 26.6014 145.139 26.6014H141.839C141.656 26.6014 141.498 26.5681 141.364 26.5014C141.231 26.4348 141.114 26.3264 141.014 26.1764C140.914 25.8098 140.648 25.4931 140.214 25.2264C139.798 24.9431 139.248 24.8014 138.564 24.8014C137.831 24.8014 137.256 24.9348 136.839 25.2014C136.439 25.4514 136.239 25.8431 136.239 26.3764C136.239 26.7098 136.348 27.0014 136.564 27.2514C136.798 27.5014 137.173 27.7181 137.689 27.9014C138.223 28.0848 138.948 28.2764 139.864 28.4764C141.381 28.7598 142.606 29.1181 143.539 29.5514C144.473 29.9681 145.156 30.5181 145.589 31.2014C146.023 31.8681 146.239 32.7098 146.239 33.7264C146.239 34.8598 145.914 35.8431 145.264 36.6764C144.631 37.4931 143.748 38.1181 142.614 38.5514C141.481 38.9848 140.181 39.2014 138.714 39.2014ZM149.367 38.9514C149.184 38.9514 149.034 38.8931 148.917 38.7764C148.801 38.6598 148.742 38.5098 148.742 38.3264V22.0764C148.742 21.8931 148.801 21.7431 148.917 21.6264C149.034 21.5098 149.184 21.4514 149.367 21.4514H152.592C152.776 21.4514 152.926 21.5098 153.042 21.6264C153.159 21.7431 153.217 21.8931 153.217 22.0764V28.1014H159.392V22.0764C159.392 21.8931 159.451 21.7431 159.567 21.6264C159.684 21.5098 159.834 21.4514 160.017 21.4514H163.242C163.426 21.4514 163.576 21.5098 163.692 21.6264C163.809 21.7431 163.867 21.8931 163.867 22.0764V38.3264C163.867 38.5098 163.809 38.6598 163.692 38.7764C163.576 38.8931 163.426 38.9514 163.242 38.9514H160.017C159.834 38.9514 159.684 38.8931 159.567 38.7764C159.451 38.6598 159.392 38.5098 159.392 38.3264V32.1014H153.217V38.3264C153.217 38.5098 153.159 38.6598 153.042 38.7764C152.926 38.8931 152.776 38.9514 152.592 38.9514H149.367ZM166.37 38.9514C166.237 38.9514 166.112 38.9014 165.995 38.8014C165.895 38.6848 165.845 38.5598 165.845 38.4264C165.845 38.3431 165.853 38.2681 165.87 38.2014L171.745 22.1514C171.795 21.9681 171.895 21.8098 172.045 21.6764C172.212 21.5264 172.437 21.4514 172.72 21.4514H176.42C176.703 21.4514 176.92 21.5264 177.07 21.6764C177.237 21.8098 177.345 21.9681 177.395 22.1514L183.245 38.2014C183.278 38.2681 183.295 38.3431 183.295 38.4264C183.295 38.5598 183.237 38.6848 183.12 38.8014C183.02 38.9014 182.895 38.9514 182.745 38.9514H179.67C179.42 38.9514 179.228 38.8931 179.095 38.7764C178.978 38.6431 178.903 38.5264 178.87 38.4264L177.895 35.8764H171.22L170.27 38.4264C170.237 38.5264 170.162 38.6431 170.045 38.7764C169.928 38.8931 169.728 38.9514 169.445 38.9514H166.37ZM172.245 32.2764H176.895L174.545 25.6764L172.245 32.2764ZM185.891 38.9514C185.707 38.9514 185.557 38.8931 185.441 38.7764C185.324 38.6598 185.266 38.5098 185.266 38.3264V22.0764C185.266 21.8931 185.324 21.7431 185.441 21.6264C185.557 21.5098 185.707 21.4514 185.891 21.4514H189.191C189.357 21.4514 189.499 21.5098 189.616 21.6264C189.749 21.7431 189.816 21.8931 189.816 22.0764V35.1764H197.366C197.549 35.1764 197.699 35.2431 197.816 35.3764C197.949 35.4931 198.016 35.6431 198.016 35.8264V38.3264C198.016 38.5098 197.949 38.6598 197.816 38.7764C197.699 38.8931 197.549 38.9514 197.366 38.9514H185.891Z" fill="#FF7D29"/>
<path d="M107.42 62.9514C107.259 62.9514 107.134 62.9074 107.046 62.8194C106.958 62.7168 106.914 62.5921 106.914 62.4454V48.0794C106.914 47.9181 106.958 47.7934 107.046 47.7054C107.134 47.6028 107.259 47.5514 107.42 47.5514H116.506C116.667 47.5514 116.792 47.6028 116.88 47.7054C116.968 47.7934 117.012 47.9181 117.012 48.0794V48.9154C117.012 49.0768 116.968 49.2014 116.88 49.2894C116.792 49.3774 116.667 49.4214 116.506 49.4214H109.026V54.2394H116.022C116.183 54.2394 116.308 54.2908 116.396 54.3934C116.484 54.4814 116.528 54.6061 116.528 54.7674V55.5814C116.528 55.7281 116.484 55.8528 116.396 55.9554C116.308 56.0434 116.183 56.0874 116.022 56.0874H109.026V61.0814H116.682C116.843 61.0814 116.968 61.1254 117.056 61.2134C117.144 61.3014 117.188 61.4261 117.188 61.5874V62.4454C117.188 62.5921 117.144 62.7168 117.056 62.8194C116.968 62.9074 116.843 62.9514 116.682 62.9514H107.42ZM122.962 62.9514C122.8 62.9514 122.676 62.9074 122.588 62.8194C122.5 62.7168 122.456 62.5921 122.456 62.4454V48.0794C122.456 47.9181 122.5 47.7934 122.588 47.7054C122.676 47.6028 122.8 47.5514 122.962 47.5514H123.974C124.15 47.5514 124.282 47.5954 124.37 47.6834C124.458 47.7568 124.509 47.8154 124.524 47.8594L131.828 59.0794V48.0794C131.828 47.9181 131.872 47.7934 131.96 47.7054C132.048 47.6028 132.172 47.5514 132.334 47.5514H133.39C133.551 47.5514 133.676 47.6028 133.764 47.7054C133.866 47.7934 133.918 47.9181 133.918 48.0794V62.4234C133.918 62.5701 133.866 62.6948 133.764 62.7974C133.676 62.9001 133.558 62.9514 133.412 62.9514H132.356C132.194 62.9514 132.07 62.9074 131.982 62.8194C131.908 62.7314 131.857 62.6728 131.828 62.6434L124.546 51.5334V62.4454C124.546 62.5921 124.494 62.7168 124.392 62.8194C124.304 62.9074 124.179 62.9514 124.018 62.9514H122.962ZM143.803 62.9514C143.657 62.9514 143.532 62.9074 143.429 62.8194C143.341 62.7168 143.297 62.5921 143.297 62.4454V49.5094H139.073C138.927 49.5094 138.802 49.4654 138.699 49.3774C138.611 49.2748 138.567 49.1501 138.567 49.0034V48.0794C138.567 47.9181 138.611 47.7934 138.699 47.7054C138.802 47.6028 138.927 47.5514 139.073 47.5514H149.677C149.839 47.5514 149.963 47.6028 150.051 47.7054C150.154 47.7934 150.205 47.9181 150.205 48.0794V49.0034C150.205 49.1501 150.154 49.2748 150.051 49.3774C149.963 49.4654 149.839 49.5094 149.677 49.5094H145.475V62.4454C145.475 62.5921 145.424 62.7168 145.321 62.8194C145.233 62.9074 145.109 62.9514 144.947 62.9514H143.803ZM155.377 62.9514C155.216 62.9514 155.091 62.9074 155.003 62.8194C154.915 62.7168 154.871 62.5921 154.871 62.4454V48.0794C154.871 47.9181 154.915 47.7934 155.003 47.7054C155.091 47.6028 155.216 47.5514 155.377 47.5514H164.463C164.625 47.5514 164.749 47.6028 164.837 47.7054C164.925 47.7934 164.969 47.9181 164.969 48.0794V48.9154C164.969 49.0768 164.925 49.2014 164.837 49.2894C164.749 49.3774 164.625 49.4214 164.463 49.4214H156.983V54.2394H163.979C164.141 54.2394 164.265 54.2908 164.353 54.3934C164.441 54.4814 164.485 54.6061 164.485 54.7674V55.5814C164.485 55.7281 164.441 55.8528 164.353 55.9554C164.265 56.0434 164.141 56.0874 163.979 56.0874H156.983V61.0814H164.639C164.801 61.0814 164.925 61.1254 165.013 61.2134C165.101 61.3014 165.145 61.4261 165.145 61.5874V62.4454C165.145 62.5921 165.101 62.7168 165.013 62.8194C164.925 62.9074 164.801 62.9514 164.639 62.9514H155.377ZM170.919 62.9514C170.758 62.9514 170.633 62.9074 170.545 62.8194C170.457 62.7168 170.413 62.5921 170.413 62.4454V48.0794C170.413 47.9181 170.457 47.7934 170.545 47.7054C170.633 47.6028 170.758 47.5514 170.919 47.5514H176.287C177.945 47.5514 179.257 47.9401 180.225 48.7174C181.193 49.4948 181.677 50.6461 181.677 52.1714C181.677 53.3008 181.391 54.2248 180.819 54.9434C180.262 55.6474 179.499 56.1388 178.531 56.4174L181.919 62.2694C181.963 62.3574 181.985 62.4381 181.985 62.5114C181.985 62.6288 181.934 62.7314 181.831 62.8194C181.743 62.9074 181.641 62.9514 181.523 62.9514H180.467C180.218 62.9514 180.035 62.8854 179.917 62.7534C179.8 62.6214 179.697 62.4894 179.609 62.3574L176.419 56.7694H172.569V62.4454C172.569 62.5921 172.518 62.7168 172.415 62.8194C172.327 62.9074 172.203 62.9514 172.041 62.9514H170.919ZM172.569 54.8994H176.199C177.299 54.8994 178.121 54.6721 178.663 54.2174C179.206 53.7481 179.477 53.0588 179.477 52.1494C179.477 51.2548 179.206 50.5728 178.663 50.1034C178.135 49.6341 177.314 49.3994 176.199 49.3994H172.569V54.8994ZM187.535 62.9514C187.374 62.9514 187.249 62.9074 187.161 62.8194C187.073 62.7168 187.029 62.5921 187.029 62.4454V48.0794C187.029 47.9181 187.073 47.7934 187.161 47.7054C187.249 47.6028 187.374 47.5514 187.535 47.5514H193.123C194.209 47.5514 195.147 47.7274 195.939 48.0794C196.746 48.4314 197.369 48.9594 197.809 49.6634C198.249 50.3528 198.469 51.2181 198.469 52.2594C198.469 53.3008 198.249 54.1661 197.809 54.8554C197.369 55.5448 196.746 56.0654 195.939 56.4174C195.147 56.7694 194.209 56.9454 193.123 56.9454H189.229V62.4454C189.229 62.5921 189.178 62.7168 189.075 62.8194C188.987 62.9074 188.863 62.9514 188.701 62.9514H187.535ZM189.207 55.0974H193.013C194.099 55.0974 194.913 54.8554 195.455 54.3714C195.998 53.8874 196.269 53.1834 196.269 52.2594C196.269 51.3501 196.005 50.6461 195.477 50.1474C194.949 49.6488 194.128 49.3994 193.013 49.3994H189.207V55.0974ZM203.85 62.9514C203.689 62.9514 203.564 62.9074 203.476 62.8194C203.388 62.7168 203.344 62.5921 203.344 62.4454V48.0794C203.344 47.9181 203.388 47.7934 203.476 47.7054C203.564 47.6028 203.689 47.5514 203.85 47.5514H209.218C210.876 47.5514 212.188 47.9401 213.156 48.7174C214.124 49.4948 214.608 50.6461 214.608 52.1714C214.608 53.3008 214.322 54.2248 213.75 54.9434C213.193 55.6474 212.43 56.1388 211.462 56.4174L214.85 62.2694C214.894 62.3574 214.916 62.4381 214.916 62.5114C214.916 62.6288 214.865 62.7314 214.762 62.8194C214.674 62.9074 214.572 62.9514 214.454 62.9514H213.398C213.149 62.9514 212.966 62.8854 212.848 62.7534C212.731 62.6214 212.628 62.4894 212.54 62.3574L209.35 56.7694H205.5V62.4454C205.5 62.5921 205.449 62.7168 205.346 62.8194C205.258 62.9074 205.134 62.9514 204.972 62.9514H203.85ZM205.5 54.8994H209.13C210.23 54.8994 211.052 54.6721 211.594 54.2174C212.137 53.7481 212.408 53.0588 212.408 52.1494C212.408 51.2548 212.137 50.5728 211.594 50.1034C211.066 49.6341 210.245 49.3994 209.13 49.3994H205.5V54.8994ZM220.466 62.9514C220.305 62.9514 220.18 62.9074 220.092 62.8194C220.004 62.7168 219.96 62.5921 219.96 62.4454V48.0574C219.96 47.9108 220.004 47.7934 220.092 47.7054C220.18 47.6028 220.305 47.5514 220.466 47.5514H221.632C221.779 47.5514 221.896 47.6028 221.984 47.7054C222.087 47.7934 222.138 47.9108 222.138 48.0574V62.4454C222.138 62.5921 222.087 62.7168 221.984 62.8194C221.896 62.9074 221.779 62.9514 221.632 62.9514H220.466ZM233.126 63.1714C231.85 63.1714 230.779 62.9808 229.914 62.5994C229.049 62.2034 228.381 61.6974 227.912 61.0814C227.457 60.4508 227.215 59.7834 227.186 59.0794C227.186 58.9621 227.23 58.8594 227.318 58.7714C227.421 58.6688 227.538 58.6174 227.67 58.6174H228.792C228.968 58.6174 229.1 58.6614 229.188 58.7494C229.276 58.8374 229.335 58.9401 229.364 59.0574C229.437 59.4094 229.613 59.7614 229.892 60.1134C230.185 60.4508 230.589 60.7368 231.102 60.9714C231.63 61.1914 232.305 61.3014 233.126 61.3014C234.387 61.3014 235.311 61.0814 235.898 60.6414C236.499 60.1868 236.8 59.5854 236.8 58.8374C236.8 58.3241 236.639 57.9134 236.316 57.6054C236.008 57.2828 235.531 56.9968 234.886 56.7474C234.241 56.4981 233.405 56.2268 232.378 55.9334C231.307 55.6254 230.42 55.2881 229.716 54.9214C229.012 54.5548 228.484 54.1001 228.132 53.5574C227.795 53.0148 227.626 52.3254 227.626 51.4894C227.626 50.6974 227.839 49.9934 228.264 49.3774C228.689 48.7468 229.298 48.2481 230.09 47.8814C230.897 47.5148 231.872 47.3314 233.016 47.3314C233.925 47.3314 234.717 47.4561 235.392 47.7054C236.081 47.9401 236.653 48.2628 237.108 48.6734C237.563 49.0694 237.907 49.5021 238.142 49.9714C238.377 50.4261 238.501 50.8734 238.516 51.3134C238.516 51.4161 238.479 51.5188 238.406 51.6214C238.333 51.7094 238.215 51.7534 238.054 51.7534H236.888C236.785 51.7534 236.675 51.7241 236.558 51.6654C236.455 51.6068 236.375 51.4968 236.316 51.3354C236.228 50.7341 235.891 50.2281 235.304 49.8174C234.717 49.4068 233.955 49.2014 233.016 49.2014C232.063 49.2014 231.285 49.3848 230.684 49.7514C230.097 50.1181 229.804 50.6901 229.804 51.4674C229.804 51.9661 229.943 52.3841 230.222 52.7214C230.501 53.0441 230.941 53.3301 231.542 53.5794C232.143 53.8288 232.928 54.0928 233.896 54.3714C235.069 54.6941 236.03 55.0388 236.778 55.4054C237.526 55.7574 238.076 56.2048 238.428 56.7474C238.795 57.2754 238.978 57.9574 238.978 58.7934C238.978 59.7174 238.736 60.5094 238.252 61.1694C237.768 61.8148 237.086 62.3134 236.206 62.6654C235.341 63.0028 234.314 63.1714 233.126 63.1714ZM244.568 62.9514C244.406 62.9514 244.282 62.9074 244.194 62.8194C244.106 62.7168 244.062 62.5921 244.062 62.4454V48.0794C244.062 47.9181 244.106 47.7934 244.194 47.7054C244.282 47.6028 244.406 47.5514 244.568 47.5514H253.654C253.815 47.5514 253.94 47.6028 254.028 47.7054C254.116 47.7934 254.16 47.9181 254.16 48.0794V48.9154C254.16 49.0768 254.116 49.2014 254.028 49.2894C253.94 49.3774 253.815 49.4214 253.654 49.4214H246.174V54.2394H253.17C253.331 54.2394 253.456 54.2908 253.544 54.3934C253.632 54.4814 253.676 54.6061 253.676 54.7674V55.5814C253.676 55.7281 253.632 55.8528 253.544 55.9554C253.456 56.0434 253.331 56.0874 253.17 56.0874H246.174V61.0814H253.83C253.991 61.0814 254.116 61.1254 254.204 61.2134C254.292 61.3014 254.336 61.4261 254.336 61.5874V62.4454C254.336 62.5921 254.292 62.7168 254.204 62.8194C254.116 62.9074 253.991 62.9514 253.83 62.9514H244.568Z" fill="#FF7D29"/>
<line x1="100.5" y1="64" x2="100.5" y2="22" stroke="#FF7D29"/>
</svg>
