<svg width="20" height="20" viewBox="0 0 20 20" fill="none" xmlns="http://www.w3.org/2000/svg">
<path d="M18.3335 4.99746V7.01413C18.3335 8.3308 17.5001 9.16413 16.1835 9.16413H13.3335V3.33913C13.3335 2.41413 14.0918 1.6558 15.0168 1.66413C15.9251 1.67246 16.7585 2.03913 17.3585 2.63913C17.9585 3.24746 18.3335 4.0808 18.3335 4.99746Z" fill="#FF9248"/>
<path opacity="0.4" d="M1.66699 5.83073V17.4974C1.66699 18.1891 2.45032 18.5807 3.00032 18.1641L4.42532 17.0974C4.75865 16.8474 5.22532 16.8807 5.52532 17.1807L6.90865 18.5724C7.23365 18.8974 7.76699 18.8974 8.09199 18.5724L9.49199 17.1724C9.78365 16.8807 10.2503 16.8474 10.5753 17.0974L12.0003 18.1641C12.5503 18.5724 13.3336 18.1807 13.3336 17.4974V3.33073C13.3336 2.41406 14.0836 1.66406 15.0003 1.66406H5.83365H5.00032C2.50032 1.66406 1.66699 3.15573 1.66699 4.9974V5.83073Z" fill="#FFEFE1"/>
<path d="M10 10.2109H7.5C7.15833 10.2109 6.875 10.4943 6.875 10.8359C6.875 11.1776 7.15833 11.4609 7.5 11.4609H10C10.3416 11.4609 10.625 11.1776 10.625 10.8359C10.625 10.4943 10.3416 10.2109 10 10.2109Z" fill="#FF9248"/>
<path d="M7.5 8.13281H10C10.3416 8.13281 10.625 7.84948 10.625 7.50781C10.625 7.16615 10.3416 6.88281 10 6.88281H7.5C7.15833 6.88281 6.875 7.16615 6.875 7.50781C6.875 7.84948 7.15833 8.13281 7.5 8.13281Z" fill="#FF9248"/>
<path d="M4.97493 6.67188C4.50826 6.67188 4.1416 7.04687 4.1416 7.50521C4.1416 7.96354 4.5166 8.33854 4.97493 8.33854C5.43326 8.33854 5.80826 7.96354 5.80826 7.50521C5.80826 7.04687 5.43326 6.67188 4.97493 6.67188Z" fill="#FF9248"/>
<path d="M4.97445 10.0078C4.50778 10.0078 4.14111 10.3828 4.14111 10.8411C4.14111 11.2995 4.51611 11.6745 4.97445 11.6745C5.43278 11.6745 5.80778 11.2995 5.80778 10.8411C5.80778 10.3828 5.43278 10.0078 4.97445 10.0078Z" fill="#FF9248"/>
</svg>
