<svg width="20" height="20" viewBox="0 0 20 20" fill="none" xmlns="http://www.w3.org/2000/svg">
<path fill-rule="evenodd" clip-rule="evenodd" d="M16.6303 13.8487C15.8672 12.8528 14.9441 12.2062 13.6214 11.8392L12.3821 16.1782C12.3821 16.5779 12.0548 16.9051 11.6552 16.9051C11.2557 16.9051 10.9284 16.5779 10.9284 16.1782V12.7258C10.9284 12.2244 10.5213 11.8172 10.0198 11.8172C9.51839 11.8172 9.11131 12.2244 9.11131 12.7258V16.1782C9.11131 16.5779 8.78407 16.9051 8.38451 16.9051C7.98483 16.9051 7.65759 16.5779 7.65759 16.1782L6.41827 11.8392C5.09555 12.2097 4.17247 12.8528 3.40943 13.8487C3.10775 14.2412 2.94383 15.0298 2.93311 15.4515C2.93671 15.5605 2.93311 15.6877 2.93311 15.8148V16.5416V17.2686C2.93311 18.0717 3.58367 18.7222 4.38683 18.7222H15.6527C16.4559 18.7222 17.1065 18.0717 17.1065 17.2686V16.5416V15.8148C17.1065 15.6877 17.103 15.5605 17.1065 15.4515C17.0955 15.0298 16.9318 14.2411 16.6303 13.8487ZM6.20391 5.12304C6.20391 7.2454 7.52703 10.3636 10.0198 10.3636C12.4693 10.3636 13.8357 7.2454 13.8357 5.12304C13.8357 3.00076 12.1276 1.27808 10.0198 1.27808C7.91207 1.27808 6.20391 3.00076 6.20391 5.12304Z" fill="#FF9248"/>
</svg>
