<svg width="20" height="20" viewBox="0 0 20 20" fill="none" xmlns="http://www.w3.org/2000/svg">
<path d="M13.9062 17.0312C14.5966 17.0312 15.1562 16.4716 15.1562 15.7812C15.1562 15.0909 14.5966 14.5312 13.9062 14.5312C13.2159 14.5312 12.6562 15.0909 12.6562 15.7812C12.6562 16.4716 13.2159 17.0312 13.9062 17.0312Z" stroke="#FF9248" stroke-miterlimit="10" stroke-linecap="round" stroke-linejoin="round"/>
<path d="M7.65625 17.0312C8.34661 17.0312 8.90625 16.4716 8.90625 15.7812C8.90625 15.0909 8.34661 14.5312 7.65625 14.5312C6.96589 14.5312 6.40625 15.0909 6.40625 15.7812C6.40625 16.4716 6.96589 17.0312 7.65625 17.0312Z" stroke="#FF9248" stroke-miterlimit="10" stroke-linecap="round" stroke-linejoin="round"/>
<path d="M4.53125 5.15625H17.5125C17.9511 5.15625 18.2533 5.59624 18.0959 6.00561L15.6057 12.48C15.42 12.9627 14.9562 13.2812 14.439 13.2812H7.12627C6.52694 13.2812 6.01194 12.8559 5.89876 12.2673L4.53125 5.15625Z" stroke="#FF9248" stroke-miterlimit="10" stroke-linecap="round" stroke-linejoin="round"/>
<path d="M4.52273 5.15793L4.28582 3.97357C4.16895 3.3893 3.65594 2.96875 3.0601 2.96875H1.92871" stroke="#FF9248" stroke-miterlimit="10" stroke-linecap="round" stroke-linejoin="round"/>
<path d="M14.0474 7.03125H14.5161" stroke="#FF9248" stroke-miterlimit="10" stroke-linecap="round" stroke-linejoin="round"/>
<path d="M5 7.03125H12.6413" stroke="#FF9248" stroke-miterlimit="10" stroke-linecap="round" stroke-linejoin="round"/>
</svg>
