<svg width="20" height="20" viewBox="0 0 20 20" fill="none" xmlns="http://www.w3.org/2000/svg">
<path opacity="0.4" d="M3.47531 12.7502L7.25031 16.5252C8.80031 18.0752 11.3169 18.0752 12.8753 16.5252L16.5336 12.8668C18.0836 11.3168 18.0836 8.80016 16.5336 7.24183L12.7503 3.47516C11.9586 2.6835 10.8669 2.2585 9.75031 2.31683L5.58365 2.51683C3.91698 2.59183 2.59198 3.91683 2.50865 5.57516L2.30865 9.74183C2.25865 10.8668 2.68365 11.9585 3.47531 12.7502Z" fill="#FFEFE1"/>
<path d="M7.9166 10.3166C9.24208 10.3166 10.3166 9.24208 10.3166 7.9166C10.3166 6.59112 9.24208 5.5166 7.9166 5.5166C6.59112 5.5166 5.5166 6.59112 5.5166 7.9166C5.5166 9.24208 6.59112 10.3166 7.9166 10.3166Z" fill="#FF9248"/>
</svg>
