<svg width="127" height="36" viewBox="0 0 127 36" fill="none" xmlns="http://www.w3.org/2000/svg">
<path d="M12.1149 7.68107C11.8775 7.04624 11.8673 6.5398 12.0853 6.16174C12.3023 5.78473 12.7286 5.59571 13.3619 5.59571H14.8467V5H0V5.59571H1.48459C2.39503 5.59571 3.05869 5.8039 3.47399 6.22134C3.88983 6.63852 4.19601 7.12527 4.39464 7.68107L14.1341 34.7895L22.4649 34.769L19.8354 29.1296L12.1149 7.68107Z" fill="#FF6700"/>
<path d="M40.0001 27.054H21.1635L22.5 23.6971H33.8539V16.0259H25.0725L26.2412 12.7289H39.9985V5.05776L24.6457 5V5.59571H26.1302C26.7633 5.59571 27.1789 5.78473 27.3775 6.16174C27.444 6.28908 27.4861 6.43242 27.5081 6.5889L19.8354 29.1296L22.4652 34.7687L40.0001 34.7254V27.054Z" fill="#FF6700"/>
<path d="M47.6 34L47.574 33.974L45.91 33.623V25.329H51.461L52.501 26.499H47.704V28.995H50.941L51.981 30.165H47.717V32.83H51.981L53.021 34H47.6ZM61.9499 25.862V34.377L60.1299 34L55.9179 28.046L55.9439 34.377L54.1239 34V25.342L55.9179 25.862L60.1299 31.751V25.342L61.9499 25.862ZM63.9023 26.499L62.8623 25.329H70.2333L71.2733 26.499H68.1403L68.1663 34.377L66.3463 34V26.499H63.9023ZM73.8793 34L73.8533 33.974L72.1893 33.623V25.329H77.7403L78.7803 26.499H73.9833V28.995H77.2203L78.2603 30.165H73.9963V32.83H78.2603L79.3003 34H73.8793ZM85.6942 31.296C85.6162 31.1487 85.4168 30.9363 85.0962 30.659C84.2555 30.971 83.2935 31.0057 82.2102 30.763L82.2232 34.377L80.4032 34V25.303C81.1918 25.0863 82.0715 24.9433 83.0422 24.874C84.0215 24.8047 84.6368 24.8567 84.8882 25.03C85.1482 25.264 85.5555 25.6583 86.1102 26.213C86.6648 26.7677 87.0505 27.1707 87.2672 27.422C87.4925 27.6993 87.4665 28.15 87.1892 28.774C86.9205 29.398 86.4568 29.9137 85.7982 30.321C86.7168 30.711 87.2152 30.9493 87.2932 31.036C87.4058 31.2007 87.4838 31.3913 87.5272 31.608C87.5792 31.816 87.6052 31.9937 87.6052 32.141C87.6052 32.2883 87.5965 32.4963 87.5792 32.765C87.5618 33.0337 87.5532 33.2157 87.5532 33.311C87.5532 33.3977 87.5445 33.532 87.5272 33.714C87.5185 33.8873 87.5142 34.0173 87.5142 34.104C87.5142 34.1907 87.5272 34.299 87.5532 34.429C87.5792 34.5677 87.6225 34.676 87.6832 34.754C87.7438 34.832 87.8348 34.9143 87.9562 35.001C88.0775 35.0877 88.2335 35.1613 88.4242 35.222C87.7395 35.3607 87.1675 35.248 86.7082 34.884C86.2575 34.5287 86.0105 34.0043 85.9672 33.311C85.9672 33.259 85.9585 33.0987 85.9412 32.83C85.9325 32.5613 85.9195 32.3663 85.9022 32.245C85.8935 32.1237 85.8718 31.9677 85.8372 31.777C85.8025 31.5777 85.7548 31.4173 85.6942 31.296ZM85.4732 26.499C84.9618 26.0137 83.8698 25.9443 82.1972 26.291L82.2102 29.931C82.8168 29.9397 83.3628 29.853 83.8482 29.671C84.3422 29.4803 84.7192 29.242 84.9792 28.956C85.2392 28.6613 85.4385 28.3537 85.5772 28.033C85.7158 27.7123 85.7722 27.4133 85.7462 27.136C85.7202 26.8587 85.6292 26.6463 85.4732 26.499ZM89.2264 34V25.303C90.0151 25.0863 90.8947 24.9433 91.8654 24.874C92.8447 24.8047 93.4601 24.8567 93.7114 25.03C93.9714 25.264 94.3787 25.6583 94.9334 26.213C95.4881 26.7677 95.8737 27.1707 96.0904 27.422C96.2204 27.578 96.2551 27.8423 96.1944 28.215C96.1337 28.579 95.9821 28.9647 95.7394 29.372C95.4967 29.7707 95.1587 30.1433 94.7254 30.49C94.2921 30.828 93.7677 31.0533 93.1524 31.166C92.5371 31.27 91.8307 31.205 91.0334 30.971L91.0464 34.377L89.2264 34ZM94.2704 26.486C93.8111 25.9747 92.7277 25.8837 91.0204 26.213L91.0334 30.36C91.6574 30.4293 92.2121 30.3687 92.6974 30.178C93.1827 29.9787 93.5511 29.71 93.8024 29.372C94.0537 29.034 94.2401 28.6743 94.3614 28.293C94.4914 27.903 94.5434 27.5433 94.5174 27.214C94.4914 26.8847 94.4091 26.642 94.2704 26.486ZM102.96 31.296C102.882 31.1487 102.682 30.9363 102.362 30.659C101.521 30.971 100.559 31.0057 99.4758 30.763L99.4888 34.377L97.6688 34V25.303C98.4575 25.0863 99.3371 24.9433 100.308 24.874C101.287 24.8047 101.902 24.8567 102.154 25.03C102.414 25.264 102.821 25.6583 103.376 26.213C103.93 26.7677 104.316 27.1707 104.533 27.422C104.758 27.6993 104.732 28.15 104.455 28.774C104.186 29.398 103.722 29.9137 103.064 30.321C103.982 30.711 104.481 30.9493 104.559 31.036C104.671 31.2007 104.749 31.3913 104.793 31.608C104.845 31.816 104.871 31.9937 104.871 32.141C104.871 32.2883 104.862 32.4963 104.845 32.765C104.827 33.0337 104.819 33.2157 104.819 33.311C104.819 33.3977 104.81 33.532 104.793 33.714C104.784 33.8873 104.78 34.0173 104.78 34.104C104.78 34.1907 104.793 34.299 104.819 34.429C104.845 34.5677 104.888 34.676 104.949 34.754C105.009 34.832 105.1 34.9143 105.222 35.001C105.343 35.0877 105.499 35.1613 105.69 35.222C105.005 35.3607 104.433 35.248 103.974 34.884C103.523 34.5287 103.276 34.0043 103.233 33.311C103.233 33.259 103.224 33.0987 103.207 32.83C103.198 32.5613 103.185 32.3663 103.168 32.245C103.159 32.1237 103.137 31.9677 103.103 31.777C103.068 31.5777 103.02 31.4173 102.96 31.296ZM102.739 26.499C102.227 26.0137 101.135 25.9443 99.4628 26.291L99.4758 29.931C100.082 29.9397 100.628 29.853 101.114 29.671C101.608 29.4803 101.985 29.242 102.245 28.956C102.505 28.6613 102.704 28.3537 102.843 28.033C102.981 27.7123 103.038 27.4133 103.012 27.136C102.986 26.8587 102.895 26.6463 102.739 26.499ZM108.416 25.875L108.442 34.377L106.492 34V25.342L108.416 25.875ZM116.945 27.149C116.581 27.0103 116.225 26.8977 115.879 26.811C115.541 26.7243 115.155 26.6767 114.722 26.668C114.297 26.6507 113.92 26.7027 113.591 26.824C113.261 26.9453 112.962 27.1793 112.694 27.526C112.425 27.864 112.247 28.3103 112.161 28.865C112.143 28.9603 112.473 28.9907 113.149 28.956C113.825 28.9127 114.483 28.865 115.125 28.813C115.766 28.761 116.208 28.8 116.451 28.93C117.309 29.6927 117.911 30.399 118.258 31.049C118.431 31.361 118.357 31.8117 118.037 32.401C117.629 33.1377 117.04 33.6793 116.269 34.026C114.908 34.65 113.417 34.4203 111.797 33.337C111.138 32.895 110.475 32.31 109.808 31.582L110.198 31.387C110.7 31.6557 111.103 31.8637 111.407 32.011C111.719 32.1583 112.109 32.31 112.577 32.466C113.045 32.6133 113.456 32.6913 113.812 32.7C114.635 32.7173 115.311 32.518 115.84 32.102C116.368 31.6773 116.667 31.1053 116.737 30.386C116.745 30.308 116.433 30.321 115.801 30.425C115.168 30.5203 114.531 30.607 113.89 30.685C113.248 30.763 112.763 30.7023 112.434 30.503C112.087 30.2257 111.545 29.6797 110.809 28.865C110.575 28.579 110.453 28.2713 110.445 27.942C110.436 27.6127 110.544 27.279 110.77 26.941C110.995 26.603 111.272 26.2997 111.602 26.031C111.931 25.7623 112.317 25.5413 112.759 25.368C113.209 25.1947 113.656 25.108 114.098 25.108C114.21 25.108 114.423 25.1817 114.735 25.329C115.047 25.4677 115.476 25.68 116.022 25.966C116.576 26.252 116.94 26.4383 117.114 26.525L116.945 27.149ZM121.385 34L121.359 33.974L119.695 33.623V25.329H125.246L126.286 26.499H121.489V28.995H124.726L125.766 30.165H121.502V32.83H125.766L126.806 34H121.385Z" fill="#3E3E3E"/>
<path d="M49.005 14.82L49.02 14.79L45 5.01L47.085 5.445L49.875 12.435L52.605 5.01L54.855 5.445L51.225 15.435L49.005 14.82ZM59.4819 5.625L59.5119 15.435L57.2619 15V5.01L59.4819 5.625ZM70.8225 7.095C70.4025 6.935 69.9925 6.805 69.5925 6.705C69.2025 6.605 68.7575 6.55 68.2575 6.54C67.7675 6.52 67.3325 6.58 66.9525 6.72C66.5725 6.86 66.2275 7.13 65.9175 7.53C65.6075 7.92 65.4025 8.435 65.3025 9.075C65.2825 9.185 65.6625 9.22 66.4425 9.18C67.2225 9.13 67.9825 9.075 68.7225 9.015C69.4625 8.955 69.9725 9 70.2525 9.15C71.2425 10.03 71.9375 10.845 72.3375 11.595C72.5375 11.955 72.4525 12.475 72.0825 13.155C71.6125 14.005 70.9325 14.63 70.0425 15.03C68.4725 15.75 66.7525 15.485 64.8825 14.235C64.1225 13.725 63.3575 13.05 62.5875 12.21L63.0375 11.985C63.6175 12.295 64.0825 12.535 64.4325 12.705C64.7925 12.875 65.2425 13.05 65.7825 13.23C66.3225 13.4 66.7975 13.49 67.2075 13.5C68.1575 13.52 68.9375 13.29 69.5475 12.81C70.1575 12.32 70.5025 11.66 70.5825 10.83C70.5925 10.74 70.2325 10.755 69.5025 10.875C68.7725 10.985 68.0375 11.085 67.2975 11.175C66.5575 11.265 65.9975 11.195 65.6175 10.965C65.2175 10.645 64.5925 10.015 63.7425 9.075C63.4725 8.745 63.3325 8.39 63.3225 8.01C63.3125 7.63 63.4375 7.245 63.6975 6.855C63.9575 6.465 64.2775 6.115 64.6575 5.805C65.0375 5.495 65.4825 5.24 65.9925 5.04C66.5125 4.84 67.0275 4.74 67.5375 4.74C67.6675 4.74 67.9125 4.825 68.2725 4.995C68.6325 5.155 69.1275 5.4 69.7575 5.73C70.3975 6.06 70.8175 6.275 71.0175 6.375L70.8225 7.095ZM77.5663 5.61L77.5813 9.81L82.4263 9.54V5.01L84.5263 5.61V15.435L82.4263 15V10.815L77.5813 11.085L77.5963 15.435L75.4963 15V5.01L77.5663 5.61ZM92.9291 5.625L92.9141 5.67L96.9341 15.435L94.9991 15L93.9491 12.255L90.4091 12.495L89.3291 15.435L87.2291 15L90.8591 5.01L92.9291 5.625ZM92.1791 7.65L90.8891 11.19L93.4691 11.01L92.1791 7.65ZM101.558 5.61L101.573 13.65H106.193L107.393 15H101.588L99.4875 14.565V4.995L101.558 5.61Z" fill="#0D0D0D"/>
<line x1="45" y1="20.2015" x2="105" y2="20.2015" stroke="black" stroke-width="1.26106"/>
</svg>
