<svg width="40" height="22" viewBox="0 0 40 22" fill="none" xmlns="http://www.w3.org/2000/svg">
<mask id="path-1-inside-1_1_11" fill="white">
<path d="M10.2128 21.82L0 0H8.29787L14.8936 16.6378L21.2766 0H40L37.8723 3.8185L27.234 4.09125L25.3191 8.45525H34.6809L32.5532 12.5465H23.4043L20.8511 18.0015H31.4894L29.3617 21.82H10.2128Z"/>
</mask>
<path d="M0 0V-50H-78.608L-45.2852 21.1956L0 0ZM10.2128 21.82L-35.0724 43.0156L-21.5906 71.82H10.2128V21.82ZM29.3617 21.82V71.82H58.7397L73.0391 46.1569L29.3617 21.82ZM31.4894 18.0015L75.1667 42.3384L116.587 -31.9985L31.4894 -31.9985V18.0015ZM20.8511 18.0015L-24.4341 -3.19404L-57.7569 68.0015H20.8511V18.0015ZM23.4043 12.5465V-37.4535H-8.39914L-21.8809 -8.64904L23.4043 12.5465ZM32.5532 12.5465V62.5465H62.9078L76.9131 35.6159L32.5532 12.5465ZM34.6809 8.45525L79.0408 31.5247L117.041 -41.5448L34.6809 -41.5448V8.45525ZM25.3191 8.45525L-20.4669 -11.6354L-51.2222 58.4552L25.3191 58.4552V8.45525ZM27.234 4.09125L25.9525 -45.8923L-5.79236 -45.0784L-18.5521 -15.9994L27.234 4.09125ZM37.8723 3.8185L39.1538 53.8021L67.6668 53.071L81.5497 28.1554L37.8723 3.8185ZM40 0L83.6774 24.3369L125.098 -50H40V0ZM21.2766 0V-50H-13.0945L-25.4059 -17.9095L21.2766 0ZM14.8936 16.6378L-31.5872 35.0642L15.6573 154.238L61.5761 34.5472L14.8936 16.6378ZM8.29787 0L54.7787 -18.4265L42.2619 -50H8.29787V0ZM-45.2852 21.1956L-35.0724 43.0156L55.498 0.624443L45.2852 -21.1956L-45.2852 21.1956ZM10.2128 71.82H29.3617V-28.18H10.2128V71.82ZM73.0391 46.1569L75.1667 42.3384L-12.188 -6.33544L-14.3157 -2.51694L73.0391 46.1569ZM31.4894 -31.9985H20.8511V68.0015H31.4894V-31.9985ZM66.1363 39.197L68.6894 33.742L-21.8809 -8.64904L-24.4341 -3.19404L66.1363 39.197ZM23.4043 62.5465H32.5532V-37.4535H23.4043V62.5465ZM76.9131 35.6159L79.0408 31.5247L-9.67906 -14.6142L-11.8067 -10.5229L76.9131 35.6159ZM34.6809 -41.5448H25.3191V58.4552H34.6809V-41.5448ZM71.1052 28.5459L73.0201 24.1819L-18.5521 -15.9994L-20.4669 -11.6354L71.1052 28.5459ZM28.5155 54.0748L39.1538 53.8021L36.5908 -46.1651L25.9525 -45.8923L28.5155 54.0748ZM81.5497 28.1554L83.6774 24.3369L-3.67738 -24.3369L-5.80504 -20.5184L81.5497 28.1554ZM40 -50H21.2766V50H40V-50ZM-25.4059 -17.9095L-31.7888 -1.2717L61.5761 34.5472L67.959 17.9095L-25.4059 -17.9095ZM61.3744 -1.78874L54.7787 -18.4265L-38.1829 18.4265L-31.5872 35.0642L61.3744 -1.78874ZM8.29787 -50H0V50H8.29787V-50Z" fill="#FF7D29" mask="url(#path-1-inside-1_1_11)"/>
</svg>
