<svg width="17" height="15" viewBox="0 0 17 15" fill="none" xmlns="http://www.w3.org/2000/svg">
<path fill-rule="evenodd" clip-rule="evenodd" d="M17 1.21429C17 0.892235 16.872 0.583379 16.6443 0.355656C16.4166 0.127934 16.1077 0 15.7857 0H1.21429C0.892238 0 0.583378 0.127934 0.355658 0.355656C0.127932 0.583379 0 0.892235 0 1.21429C0 1.53634 0.127932 1.8452 0.355658 2.07292C0.583378 2.30064 0.892238 2.42858 1.21429 2.42858H15.7857C16.1077 2.42858 16.4166 2.30064 16.6443 2.07292C16.872 1.8452 17 1.53634 17 1.21429Z" fill="#FF6700"/>
<path fill-rule="evenodd" clip-rule="evenodd" d="M17 7.28459C17 6.96254 16.872 6.65369 16.6443 6.42596C16.4166 6.19824 16.1077 6.07031 15.7857 6.07031H1.21429C0.892238 6.07031 0.583378 6.19824 0.355658 6.42596C0.127932 6.65369 0 6.96254 0 7.28459C0 7.60664 0.127932 7.9155 0.355658 8.14322C0.583378 8.37095 0.892238 8.49888 1.21429 8.49888H15.7857C16.1077 8.49888 16.4166 8.37095 16.6443 8.14322C16.872 7.9155 17 7.60664 17 7.28459Z" fill="#FF6700"/>
<path fill-rule="evenodd" clip-rule="evenodd" d="M17 13.3549C17 13.0329 16.872 12.724 16.6443 12.4963C16.4166 12.2686 16.1077 12.1406 15.7857 12.1406H8.49992C8.17787 12.1406 7.86902 12.2686 7.64129 12.4963C7.41357 12.724 7.28564 13.0329 7.28564 13.3549C7.28564 13.677 7.41357 13.9858 7.64129 14.2136C7.86902 14.4413 8.17787 14.5692 8.49992 14.5692H15.7857C16.1077 14.5692 16.4166 14.4413 16.6443 14.2136C16.872 13.9858 17 13.677 17 13.3549Z" fill="#FF6700"/>
</svg>
