<svg width="18" height="21" viewBox="0 0 18 21" fill="none" xmlns="http://www.w3.org/2000/svg">
<path d="M13.7503 2.31V0.75C13.7503 0.34 13.4103 0 13.0003 0C12.5903 0 12.2503 0.34 12.2503 0.75V2.25H5.75023V0.75C5.75023 0.34 5.41023 0 5.00023 0C4.59023 0 4.25023 0.34 4.25023 0.75V2.31C1.55023 2.56 0.240229 4.17 0.0402292 6.56C0.0202292 6.85 0.260229 7.09 0.540229 7.09H17.4603C17.7503 7.09 17.9903 6.84 17.9603 6.56C17.7603 4.17 16.4503 2.56 13.7503 2.31Z" fill="#FF9248"/>
<path opacity="0.4" d="M17 8.59375C17.55 8.59375 18 9.0437 18 9.5938V15.7538C18 18.7538 16.5 20.7538 13 20.7538H5C1.5 20.7538 0 18.7538 0 15.7538V9.5938C0 9.0437 0.45 8.59375 1 8.59375H17Z" fill="#FFB38A"/>
<path d="M5.5 13.7489C5.24 13.7489 4.98 13.6389 4.79 13.4589C4.61 13.2689 4.5 13.0089 4.5 12.7489C4.5 12.4889 4.61 12.2289 4.79 12.0389C5.07 11.7589 5.51 11.6689 5.88 11.8289C6.01 11.8789 6.12 11.9489 6.21 12.0389C6.39 12.2289 6.5 12.4889 6.5 12.7489C6.5 13.0089 6.39 13.2689 6.21 13.4589C6.02 13.6389 5.76 13.7489 5.5 13.7489Z" fill="#FF9248"/>
<path d="M9 13.7489C8.74 13.7489 8.48 13.6389 8.29 13.4589C8.11 13.2689 8 13.0089 8 12.7489C8 12.4889 8.11 12.2289 8.29 12.0389C8.38 11.9489 8.49 11.8789 8.62 11.8289C8.99 11.6689 9.43 11.7589 9.71 12.0389C9.89 12.2289 10 12.4889 10 12.7489C10 13.0089 9.89 13.2689 9.71 13.4589C9.66 13.4989 9.61 13.5389 9.56 13.5789C9.5 13.6189 9.44 13.6489 9.38 13.6689C9.32 13.6989 9.26 13.7189 9.2 13.7289C9.13 13.7389 9.07 13.7489 9 13.7489Z" fill="#FF9248"/>
<path d="M12.5 13.75C12.24 13.75 11.98 13.64 11.79 13.46C11.61 13.27 11.5 13.01 11.5 12.75C11.5 12.49 11.61 12.23 11.79 12.04C11.89 11.95 11.99 11.88 12.12 11.83C12.3 11.75 12.5 11.73 12.7 11.77C12.76 11.78 12.82 11.8 12.88 11.83C12.94 11.85 13 11.88 13.06 11.92C13.11 11.96 13.16 12 13.21 12.04C13.39 12.23 13.5 12.49 13.5 12.75C13.5 13.01 13.39 13.27 13.21 13.46C13.16 13.5 13.11 13.54 13.06 13.58C13 13.62 12.94 13.65 12.88 13.67C12.82 13.7 12.76 13.72 12.7 13.73C12.63 13.74 12.56 13.75 12.5 13.75Z" fill="#FF9248"/>
<path d="M5.5 17.25C5.37 17.25 5.24 17.22 5.12 17.17C4.99 17.12 4.89 17.05 4.79 16.96C4.61 16.77 4.5 16.51 4.5 16.25C4.5 15.99 4.61 15.73 4.79 15.54C4.89 15.45 4.99 15.38 5.12 15.33C5.3 15.25 5.5 15.23 5.7 15.27C5.76 15.28 5.82 15.3 5.88 15.33C5.94 15.35 6 15.38 6.06 15.42C6.11 15.46 6.16 15.5 6.21 15.54C6.39 15.73 6.5 15.99 6.5 16.25C6.5 16.51 6.39 16.77 6.21 16.96C6.16 17 6.11 17.05 6.06 17.08C6 17.12 5.94 17.15 5.88 17.17C5.82 17.2 5.76 17.22 5.7 17.23C5.63 17.24 5.57 17.25 5.5 17.25Z" fill="#FF9248"/>
<path d="M9 17.2531C8.74 17.2531 8.48 17.1431 8.29 16.9631C8.11 16.7731 8 16.5131 8 16.2531C8 15.9931 8.11 15.7331 8.29 15.5431C8.66 15.1731 9.34 15.1731 9.71 15.5431C9.89 15.7331 10 15.9931 10 16.2531C10 16.5131 9.89 16.7731 9.71 16.9631C9.52 17.1431 9.26 17.2531 9 17.2531Z" fill="#FF9248"/>
<path d="M12.5 17.2531C12.24 17.2531 11.98 17.1431 11.79 16.9631C11.61 16.7731 11.5 16.5131 11.5 16.2531C11.5 15.9931 11.61 15.7331 11.79 15.5431C12.16 15.1731 12.84 15.1731 13.21 15.5431C13.39 15.7331 13.5 15.9931 13.5 16.2531C13.5 16.5131 13.39 16.7731 13.21 16.9631C13.02 17.1431 12.76 17.2531 12.5 17.2531Z" fill="#FF9248"/>
</svg>
