<svg width="18" height="16" viewBox="0 0 18 16" fill="none" xmlns="http://www.w3.org/2000/svg">
<path opacity="0.4" d="M0.778809 8.59904V7.13242C0.778809 6.26575 1.48714 5.54908 2.36214 5.54908C3.87048 5.54908 4.48714 4.48242 3.72881 3.17408C3.29548 2.42408 3.55381 1.44908 4.31214 1.01575L5.75381 0.190752C6.41214 -0.200918 7.26214 0.0324218 7.65381 0.690752L7.74547 0.849082C8.49547 2.15742 9.7288 2.15742 10.4871 0.849082L10.5788 0.690752C10.9705 0.0324218 11.8205 -0.200918 12.4788 0.190752L13.9205 1.01575C14.6788 1.44908 14.9371 2.42408 14.5038 3.17408C13.7455 4.48242 14.3621 5.54908 15.8705 5.54908C16.7371 5.54908 17.4538 6.25742 17.4538 7.13242V8.59904C17.4538 9.46574 16.7455 10.1824 15.8705 10.1824C14.3621 10.1824 13.7455 11.249 14.5038 12.5574C14.9371 13.3157 14.6788 14.2824 13.9205 14.7157L12.4788 15.5407C11.8205 15.9324 10.9705 15.699 10.5788 15.0407L10.4871 14.8824C9.7371 13.574 8.50381 13.574 7.74547 14.8824L7.65381 15.0407C7.26214 15.699 6.41214 15.9324 5.75381 15.5407L4.31214 14.7157C3.55381 14.2824 3.29548 13.3074 3.72881 12.5574C4.48714 11.249 3.87048 10.1824 2.36214 10.1824C1.48714 10.1824 0.778809 9.46574 0.778809 8.59904Z" fill="#FFB38A"/>
<path d="M9.1121 10.5797C10.6079 10.5797 11.8205 9.36724 11.8205 7.87144C11.8205 6.37565 10.6079 5.16309 9.1121 5.16309C7.61637 5.16309 6.40381 6.37565 6.40381 7.87144C6.40381 9.36724 7.61637 10.5797 9.1121 10.5797Z" fill="#FF9248"/>
</svg>
