<svg width="21" height="20" viewBox="0 0 21 20" fill="none" xmlns="http://www.w3.org/2000/svg">
<path opacity="0.4" d="M15.54 11.5031C15.12 11.9131 14.88 12.5031 14.94 13.1331C15.03 14.2131 16.02 15.0031 17.1 15.0031H19V16.1931C19 18.2631 17.31 19.9531 15.24 19.9531H3.76C1.69 19.9531 0 18.2631 0 16.1931V9.46313C0 7.39314 1.69 5.70312 3.76 5.70312H15.24C17.31 5.70312 19 7.39314 19 9.46313V10.9031H16.98C16.42 10.9031 15.91 11.1231 15.54 11.5031Z" fill="#FFB38A"/>
<path d="M12.35 1.90081V5.7008H3.76C1.69 5.7008 0 7.39081 0 9.46083V5.79083C0 4.60083 0.73 3.54078 1.84 3.12078L9.78 0.120778C11.02 -0.339222 12.35 0.570807 12.35 1.90081Z" fill="#FF9248"/>
<path d="M20.0598 11.9262V13.9862C20.0598 14.5362 19.6198 14.9863 19.0598 15.0063H17.0998C16.0198 15.0063 15.0298 14.2162 14.9398 13.1362C14.8798 12.5062 15.1198 11.9162 15.5398 11.5062C15.9098 11.1262 16.4198 10.9062 16.9798 10.9062H19.0598C19.6198 10.9262 20.0598 11.3762 20.0598 11.9262Z" fill="#FF9248"/>
<path d="M11.5 10.7031H4.5C4.09 10.7031 3.75 10.3631 3.75 9.95312C3.75 9.54313 4.09 9.20312 4.5 9.20312H11.5C11.91 9.20312 12.25 9.54313 12.25 9.95312C12.25 10.3631 11.91 10.7031 11.5 10.7031Z" fill="#FF9248"/>
</svg>
