<svg width="15" height="17" viewBox="0 0 15 17" fill="none" xmlns="http://www.w3.org/2000/svg">
<path d="M14.4766 15.9375H13.8125V0.796875C13.8125 0.356768 13.4557 0 13.0156 0H1.85938C1.41927 0 1.0625 0.356768 1.0625 0.796875V15.9375H0.398438C0.1784 15.9375 0 16.1159 0 16.3359V17H14.875V16.3359C14.875 16.1159 14.6966 15.9375 14.4766 15.9375ZM4.25 2.52344C4.25 2.3034 4.4284 2.125 4.64844 2.125H5.97656C6.1966 2.125 6.375 2.3034 6.375 2.52344V3.85156C6.375 4.0716 6.1966 4.25 5.97656 4.25H4.64844C4.4284 4.25 4.25 4.0716 4.25 3.85156V2.52344ZM4.25 5.71094C4.25 5.4909 4.4284 5.3125 4.64844 5.3125H5.97656C6.1966 5.3125 6.375 5.4909 6.375 5.71094V7.03906C6.375 7.2591 6.1966 7.4375 5.97656 7.4375H4.64844C4.4284 7.4375 4.25 7.2591 4.25 7.03906V5.71094ZM5.97656 10.625H4.64844C4.4284 10.625 4.25 10.4466 4.25 10.2266V8.89844C4.25 8.6784 4.4284 8.5 4.64844 8.5H5.97656C6.1966 8.5 6.375 8.6784 6.375 8.89844V10.2266C6.375 10.4466 6.1966 10.625 5.97656 10.625ZM8.5 15.9375H6.375V13.1484C6.375 12.9284 6.5534 12.75 6.77344 12.75H8.10156C8.3216 12.75 8.5 12.9284 8.5 13.1484V15.9375ZM10.625 10.2266C10.625 10.4466 10.4466 10.625 10.2266 10.625H8.89844C8.6784 10.625 8.5 10.4466 8.5 10.2266V8.89844C8.5 8.6784 8.6784 8.5 8.89844 8.5H10.2266C10.4466 8.5 10.625 8.6784 10.625 8.89844V10.2266ZM10.625 7.03906C10.625 7.2591 10.4466 7.4375 10.2266 7.4375H8.89844C8.6784 7.4375 8.5 7.2591 8.5 7.03906V5.71094C8.5 5.4909 8.6784 5.3125 8.89844 5.3125H10.2266C10.4466 5.3125 10.625 5.4909 10.625 5.71094V7.03906ZM10.625 3.85156C10.625 4.0716 10.4466 4.25 10.2266 4.25H8.89844C8.6784 4.25 8.5 4.0716 8.5 3.85156V2.52344C8.5 2.3034 8.6784 2.125 8.89844 2.125H10.2266C10.4466 2.125 10.625 2.3034 10.625 2.52344V3.85156Z" fill="#666876"/>
</svg>
