<svg width="34" height="37" viewBox="0 0 34 37" fill="none" xmlns="http://www.w3.org/2000/svg">
<path d="M33.1833 17.8706C33.1833 19.8841 31.5513 21.5168 29.5378 21.5168C27.5243 21.5168 25.8916 19.8841 25.8916 17.8706C25.8916 15.8571 27.5243 14.2251 29.5378 14.2251C31.5513 14.2251 33.1833 15.8571 33.1833 17.8706Z" fill="#FFE1D0"/>
<path d="M28.9887 13.5743C31.4783 13.5834 33.4771 15.5865 33.4367 18.0801V18.0801L33.3367 18.0792C33.3367 20.2418 31.775 22.0438 29.7327 22.4041L28.9887 13.5743ZM28.9887 13.5743L28.9716 13.5742C26.4736 13.5742 24.4664 15.5813 24.4664 18.0794C24.4664 20.2614 26.0215 22.0853 28.0704 22.4874V25.3276C28.0704 30.3266 24.3427 34.3981 19.7608 34.3981C15.1787 34.3981 11.4512 30.3266 11.4512 25.3276V22.6593C16.5859 22.3683 20.6617 18.0602 20.6617 12.8733L20.662 2.70169C20.662 2.20594 20.2568 1.80084 19.7611 1.80084H17.4947C17.1914 1.31938 16.656 1 16.077 1C15.1407 1 14.3753 1.76545 14.3753 2.70169C14.3753 3.63792 15.1407 4.40338 16.077 4.40338C16.6899 4.40338 17.2293 4.08792 17.4988 3.60253H18.8603V12.8332C18.8603 17.263 15.2608 20.8625 10.831 20.8625C6.40115 20.8625 2.80169 17.263 2.80169 12.8332V3.60253H4.16722C4.47055 4.084 5.006 4.40338 5.58498 4.40338C6.52122 4.40338 7.28667 3.63792 7.28667 2.70169C7.28667 1.76545 6.52122 1 5.58498 1C4.9721 1 4.43266 1.31546 4.1632 1.80084H1.90084C1.4051 1.80084 1 2.20596 1 2.70169V12.8333C1 17.8202 4.75739 21.9669 9.60984 22.573V25.3277C9.60984 31.3025 14.1328 36.2 19.7213 36.2C25.3098 36.2 29.8327 31.3024 29.8327 25.3277V22.4872L28.9887 13.5743ZM28.9716 20.7825C27.465 20.7825 26.2684 19.5859 26.2684 18.0793C26.2684 16.5728 27.465 15.3762 28.9716 15.3762C30.4781 15.3762 31.6747 16.5728 31.6747 18.0793C31.6747 19.585 30.4391 20.7825 28.9716 20.7825Z" fill="#FF9248"/>
<path d="M28.9887 13.5743C31.4783 13.5834 33.4771 15.5865 33.4367 18.0801M28.9887 13.5743L29.7327 22.4041C31.775 22.0438 33.3367 20.2418 33.3367 18.0792L33.4367 18.0801M28.9887 13.5743L28.9716 13.5742C26.4736 13.5742 24.4664 15.5813 24.4664 18.0794C24.4664 20.2614 26.0215 22.0853 28.0704 22.4874V25.3276C28.0704 30.3266 24.3427 34.3981 19.7608 34.3981C15.1787 34.3981 11.4512 30.3266 11.4512 25.3276V22.6593C16.5859 22.3683 20.6617 18.0602 20.6617 12.8733L20.662 2.70169C20.662 2.20594 20.2568 1.80084 19.7611 1.80084H17.4947C17.1914 1.31938 16.656 1 16.077 1C15.1407 1 14.3753 1.76545 14.3753 2.70169C14.3753 3.63792 15.1407 4.40338 16.077 4.40338C16.6899 4.40338 17.2293 4.08792 17.4988 3.60253H18.8603V12.8332C18.8603 17.263 15.2608 20.8625 10.831 20.8625C6.40115 20.8625 2.80169 17.263 2.80169 12.8332V3.60253H4.16722C4.47055 4.084 5.006 4.40338 5.58498 4.40338C6.52122 4.40338 7.28667 3.63792 7.28667 2.70169C7.28667 1.76545 6.52122 1 5.58498 1C4.9721 1 4.43266 1.31546 4.1632 1.80084H1.90084C1.4051 1.80084 1 2.20596 1 2.70169V12.8333C1 17.8202 4.75739 21.9669 9.60984 22.573V25.3277C9.60984 31.3025 14.1328 36.2 19.7213 36.2C25.3098 36.2 29.8327 31.3024 29.8327 25.3277V22.4872L28.9887 13.5743ZM33.4367 18.0801V18.0801ZM28.9716 20.7825C27.465 20.7825 26.2684 19.5859 26.2684 18.0793C26.2684 16.5728 27.465 15.3762 28.9716 15.3762C30.4781 15.3762 31.6747 16.5728 31.6747 18.0793C31.6747 19.585 30.4391 20.7825 28.9716 20.7825Z" stroke="#FF9248" stroke-width="0.2"/>
</svg>
