<svg width="15" height="17" viewBox="0 0 15 17" fill="none" xmlns="http://www.w3.org/2000/svg">
<path opacity="0.4" d="M8.33336 0C8.72496 0 9.04996 0.31667 9.04996 0.71667V15.9583C9.04996 16.35 8.73336 16.675 8.33336 16.675C3.425 16.675 0 13.25 0 8.34164C0 3.43334 3.43333 0 8.33336 0Z" fill="#FFB38A"/>
<path d="M14.4157 7.95469L12.049 5.57969C11.8074 5.33802 11.4074 5.33802 11.1657 5.57969C10.924 5.82136 10.924 6.22136 11.1657 6.46302L12.4657 7.76302H4.49072C4.14905 7.76302 3.86572 8.04636 3.86572 8.38804C3.86572 8.72974 4.14905 9.01304 4.49072 9.01304H12.4657L11.1657 10.313C10.924 10.5547 10.924 10.9547 11.1657 11.1963C11.2907 11.3213 11.449 11.3797 11.6074 11.3797C11.7657 11.3797 11.924 11.3213 12.049 11.1963L14.4157 8.82134C14.6574 8.58804 14.6574 8.19636 14.4157 7.95469Z" fill="#FF9248"/>
</svg>
