<svg width="21" height="19" viewBox="0 0 21 19" fill="none" xmlns="http://www.w3.org/2000/svg">
<path opacity="0.4" d="M15.708 18.3568H5.29134C2.16634 18.3568 0.0830078 16.7943 0.0830078 13.1484V5.85677C0.0830078 2.21094 2.16634 0.648438 5.29134 0.648438H15.708C18.833 0.648438 20.9163 2.21094 20.9163 5.85677V13.1484C20.9163 16.7943 18.833 18.3568 15.708 18.3568Z" fill="#FFB38A"/>
<path d="M10.5002 10.4045C9.62524 10.4045 8.73984 10.1337 8.06274 9.5816L4.80229 6.97743C4.46896 6.70659 4.40647 6.21701 4.6773 5.88368C4.94813 5.55034 5.43772 5.48785 5.77105 5.75868L9.03144 8.3628C9.82314 8.9983 11.1668 8.9983 11.9585 8.3628L15.2189 5.75868C15.5523 5.48785 16.0523 5.53993 16.3127 5.88368C16.5835 6.21701 16.5314 6.71701 16.1877 6.97743L12.9273 9.5816C12.2606 10.1337 11.3752 10.4045 10.5002 10.4045Z" fill="#FF7A20"/>
</svg>
