<svg width="18" height="20" viewBox="0 0 18 20" fill="none" xmlns="http://www.w3.org/2000/svg">
<path opacity="0.4" d="M17.4002 14.3269C17.1202 15.0769 16.5302 15.6469 15.7602 15.9069C14.6802 16.2669 13.5702 16.5369 12.4502 16.7269C12.3402 16.7469 12.2302 16.7669 12.1202 16.7769C11.9402 16.8069 11.7602 16.8269 11.5802 16.8469C11.3602 16.8769 11.1302 16.8969 10.9002 16.9169C10.2702 16.9669 9.6502 16.9969 9.0202 16.9969C8.3802 16.9969 7.7402 16.9669 7.1102 16.9069C6.8402 16.8869 6.5802 16.8569 6.3202 16.8169C6.1702 16.7969 6.0202 16.7769 5.8802 16.7569C5.7702 16.7369 5.6602 16.7269 5.5502 16.7069C4.4402 16.5269 3.3402 16.2569 2.2702 15.8969C1.4702 15.6269 0.860203 15.0569 0.590203 14.3269C0.320203 13.6069 0.420203 12.7669 0.850203 12.0469L1.9802 10.1669C2.2202 9.75689 2.4402 8.9669 2.4402 8.4869V6.62687C2.4402 2.99687 5.3902 0.046875 9.0202 0.046875C12.6402 0.046875 15.5902 2.99687 15.5902 6.62687V8.4869C15.5902 8.9669 15.8102 9.75689 16.0602 10.1669L17.1902 12.0469C17.6002 12.7469 17.6802 13.5669 17.4002 14.3269Z" fill="#FFB38A"/>
<path d="M9.00023 8.7606C8.58023 8.7606 8.24023 8.4206 8.24023 8.0006V4.90063C8.24023 4.48063 8.58023 4.14062 9.00023 4.14062C9.42023 4.14062 9.76023 4.48063 9.76023 4.90063V8.0006C9.75023 8.4206 9.41023 8.7606 9.00023 8.7606Z" fill="#FF6700"/>
<path d="M11.8297 18.01C11.4097 19.17 10.2997 20 8.9997 20C8.2097 20 7.4297 19.68 6.87969 19.11C6.55969 18.81 6.31969 18.41 6.17969 18C6.30969 18.02 6.43969 18.03 6.57969 18.05C6.80969 18.08 7.0497 18.11 7.2897 18.13C7.8597 18.18 8.4397 18.21 9.0197 18.21C9.5897 18.21 10.1597 18.18 10.7197 18.13C10.9297 18.11 11.1397 18.1 11.3397 18.07C11.4997 18.05 11.6597 18.03 11.8297 18.01Z" fill="#FF6700"/>
</svg>
