<svg width="15" height="15" viewBox="0 0 15 15" fill="none" xmlns="http://www.w3.org/2000/svg">
<path d="M14.1565 6.6875C13.6902 6.6875 13.3238 7.0539 13.3238 7.52022C13.3127 9.07463 12.7131 10.5291 11.625 11.6172C10.5258 12.7164 9.06023 13.327 7.50582 13.327C5.95141 13.327 4.4858 12.7164 3.38661 11.6172C3.3533 11.5839 3.33111 11.5506 3.2978 11.5173H4.21933C4.67455 11.5173 5.05205 11.1398 5.05205 10.6846C5.05205 10.2293 4.67455 9.85183 4.21933 9.85183H1.27706C0.821836 9.85183 0.444336 10.2293 0.444336 10.6846V13.6268C0.444336 14.082 0.821836 14.4595 1.27706 14.4595C1.73228 14.4595 2.10978 14.082 2.10978 13.6268V12.6831C2.14309 12.7164 2.17639 12.7608 2.2097 12.8052C3.61977 14.2153 5.50729 15.0036 7.50582 15.0036C9.50434 15.0036 11.3919 14.2264 12.8019 12.8052C14.2009 11.4062 14.9781 9.52985 14.9892 7.53132C14.9892 7.065 14.6117 6.6986 14.1565 6.6875Z" fill="#FF9248"/>
<path d="M0.832965 8.21616C1.28819 8.21616 1.65458 7.84977 1.66568 7.39455C1.68789 5.87345 2.29855 4.44117 3.36443 3.36419C4.46362 2.265 5.9292 1.65434 7.48361 1.65434C9.03802 1.65434 10.5036 2.265 11.6028 3.36419C11.6361 3.39749 11.6583 3.4308 11.6916 3.46411H10.7701C10.3149 3.46411 9.93738 3.84161 9.93738 4.29683C9.93738 4.75205 10.3149 5.12955 10.7701 5.12955H13.7124C14.1676 5.12955 14.5451 4.75205 14.5451 4.29683V1.36566C14.5451 0.91044 14.1676 0.53294 13.7124 0.53294C13.2571 0.53294 12.8796 0.91044 12.8796 1.36566V2.32051C12.8463 2.2872 12.813 2.24279 12.7797 2.19838C11.3697 0.788308 9.48213 0 7.48361 0C5.48508 0 3.59759 0.777205 2.18752 2.19838C0.799658 3.57514 0.0224517 5.41823 0.000245814 7.37234C-0.0108571 7.82756 0.355529 8.20506 0.821851 8.21616C0.832954 8.21616 0.832965 8.21616 0.832965 8.21616Z" fill="#FF9248"/>
</svg>
