<svg width="30" height="37" viewBox="0 0 30 37" fill="none" xmlns="http://www.w3.org/2000/svg">
<path d="M13.9267 36.0999C11.3553 35.9377 8.88321 35.0473 6.79861 33.5334C4.71421 32.0197 3.10321 29.9449 2.15311 27.5506C1.10011 25.0787 0.758908 22.3619 1.16821 19.7066C1.57731 17.0509 2.72081 14.5623 4.46951 12.5223L14.0194 1.3724L13.9267 36.0999ZM13.9267 36.0999H13.933H15.0454H16.1578L16.164 36.0997C18.7312 35.9406 21.2002 35.0563 23.2845 33.5494C25.3684 32.0428 26.982 29.9755 27.9377 27.5882M13.9267 36.0999L27.9377 27.5882ZM27.9377 27.5882C28.9982 25.1117 29.3437 22.3874 28.9343 19.7248C28.525 17.0616 27.3774 14.5661 25.6215 12.5223L27.9377 27.5882ZM15.0455 0.899902C15.4402 0.899902 15.8151 1.07254 16.0715 1.37235L15.0455 0.899902ZM15.0455 0.899902C14.6508 0.899902 14.2758 1.07259 14.0194 1.3724L15.0455 0.899902ZM25.4535 26.511L25.4525 26.5133C24.6886 28.4415 23.3922 30.1126 21.7144 31.3323C20.0367 32.5516 18.0469 33.2687 15.9768 33.4001C15.353 33.4428 14.7265 33.4428 14.1024 33.4001C12.0348 33.2666 10.047 32.5483 8.37151 31.3289C6.69631 30.1096 5.40171 28.4396 4.63861 26.513L4.63761 26.5106C3.77771 24.4998 3.49721 22.2888 3.82811 20.127C4.15871 17.9653 5.08741 15.9392 6.50911 14.2776L15.0331 4.366L23.5572 14.2777C24.9828 15.9368 25.9166 17.9618 26.2516 20.1235C26.5866 22.2853 26.3101 24.498 25.4535 26.511Z" fill="#FF9248"/>
<path d="M13.9267 36.0999C11.3553 35.9377 8.88321 35.0473 6.79861 33.5334C4.71421 32.0197 3.10321 29.9449 2.15311 27.5506C1.10011 25.0787 0.758908 22.3619 1.16821 19.7066C1.57731 17.0509 2.72081 14.5623 4.46951 12.5223L14.0194 1.3724M13.9267 36.0999L14.0194 1.3724M13.9267 36.0999H13.933H15.0454H16.1578L16.164 36.0997C18.7312 35.9406 21.2002 35.0563 23.2845 33.5494C25.3684 32.0428 26.982 29.9755 27.9377 27.5882M13.9267 36.0999L27.9377 27.5882M14.0194 1.3724C14.2758 1.07259 14.6508 0.899902 15.0455 0.899902M14.0194 1.3724L15.0455 0.899902M27.9377 27.5882C28.9982 25.1117 29.3437 22.3874 28.9343 19.7248C28.525 17.0616 27.3774 14.5661 25.6215 12.5223M27.9377 27.5882L25.6215 12.5223M25.6215 12.5223L16.0715 1.37235M15.0455 0.899902C15.4402 0.899902 15.8151 1.07254 16.0715 1.37235M15.0455 0.899902L16.0715 1.37235M3.82811 20.127C3.49721 22.2888 3.77771 24.4998 4.63761 26.5106L4.63861 26.513C5.40171 28.4396 6.69631 30.1096 8.37151 31.3289C10.047 32.5483 12.0348 33.2666 14.1024 33.4001C14.7265 33.4428 15.353 33.4428 15.9768 33.4001C18.0469 33.2687 20.0367 32.5516 21.7144 31.3323C23.3922 30.1126 24.6886 28.4415 25.4525 26.5133L25.4535 26.511C26.3101 24.498 26.5866 22.2853 26.2516 20.1235C25.9166 17.9618 24.9828 15.9368 23.5572 14.2777L15.0331 4.366L6.50911 14.2776C5.08741 15.9392 4.15871 17.9653 3.82811 20.127ZM3.82811 20.127L3.72921 20.1118" stroke="#FF9248" stroke-width="0.2"/>
<path d="M10.3306 25.7146C9.41161 24.7958 8.89531 23.5495 8.89531 22.2499C8.89531 21.7675 8.63801 21.3218 8.22031 21.0807C7.80261 20.8396 7.28801 20.8396 6.87031 21.0807C6.45261 21.3218 6.19531 21.7674 6.19531 22.2499C6.19531 24.2655 6.99611 26.1985 8.42131 27.6238C9.84661 29.0492 11.7796 29.8498 13.7953 29.8498C14.1533 29.8498 14.4968 29.7076 14.7499 29.4545C15.003 29.2014 15.1453 28.8578 15.1453 28.4999C15.1453 28.1419 15.003 27.7983 14.7499 27.5452C14.4968 27.2921 14.1533 27.1499 13.7953 27.1499C12.4957 27.1499 11.2493 26.6336 10.3306 25.7146Z" fill="#FFE5D6" stroke="#FFEADF" stroke-width="0.2"/>
</svg>
