<svg width="22" height="19" viewBox="0 0 22 19" fill="none" xmlns="http://www.w3.org/2000/svg">
<path d="M3.64584 7.2917C5.65937 7.2917 7.29167 5.65937 7.29167 3.64583C7.29167 1.6323 5.65937 0 3.64584 0C1.6323 0 0 1.6323 0 3.64583C0 5.65937 1.6323 7.2917 3.64584 7.2917Z" fill="#FF9248"/>
<path d="M3.64584 18.7526C5.65937 18.7526 7.29167 17.1203 7.29167 15.1068C7.29167 13.0932 5.65937 11.4609 3.64584 11.4609C1.6323 11.4609 0 13.0932 0 15.1068C0 17.1203 1.6323 18.7526 3.64584 18.7526Z" fill="#FF9248"/>
<path opacity="0.4" d="M13.803 9.3545L21.303 3.75028C21.6467 3.48987 21.7196 3.00028 21.4592 2.65653C21.1988 2.31278 20.7092 2.23987 20.3655 2.50028L12.5009 8.3857L6.71969 4.06278C6.37594 3.80237 5.88634 3.87528 5.62592 4.21903C5.36551 4.56278 5.43842 5.05237 5.78217 5.31278L11.1988 9.3649L5.05302 13.969C4.70927 14.2295 4.63636 14.719 4.89677 15.0628C5.05302 15.2711 5.28217 15.3753 5.52175 15.3753C5.68842 15.3753 5.84468 15.3232 5.99051 15.219L12.5113 10.344L20.3759 16.2295C20.5113 16.3336 20.678 16.3857 20.8447 16.3857C21.0842 16.3857 21.3134 16.2815 21.4696 16.0732C21.73 15.7295 21.6571 15.2399 21.3134 14.9794L13.803 9.3545Z" fill="#FFE1D0"/>
</svg>
