<svg width="18" height="17" viewBox="0 0 18 17" fill="none" xmlns="http://www.w3.org/2000/svg">
<path opacity="" d="M8.31351 15.0166C12.4602 15.0166 15.8218 11.655 15.8218 7.50834C15.8218 3.3616 12.4602 0 8.31351 0C4.16677 0 0.805176 3.3616 0.805176 7.50834C0.805176 11.655 4.16677 15.0166 8.31351 15.0166Z" fill="#FF6700"/>
<path d="M17.4634 14.1276C17.1884 13.6192 16.605 13.3359 15.8217 13.3359C15.23 13.3359 14.7217 13.5776 14.4217 13.9942C14.1217 14.4109 14.055 14.9692 14.2384 15.5276C14.5967 16.6109 15.2217 16.8526 15.5634 16.8942C15.6134 16.9026 15.6634 16.9026 15.7217 16.9026C16.0884 16.9026 16.655 16.7442 17.205 15.9192C17.6467 15.2776 17.73 14.6359 17.4634 14.1276Z" fill="#FF6700"/>
</svg>
