<svg width="21" height="20" viewBox="0 0 21 20" fill="none" xmlns="http://www.w3.org/2000/svg">
<path opacity="0.4" d="M0.0830078 10.9129V9.0796C0.0830078 7.9963 0.968428 7.1004 2.06218 7.1004C3.9476 7.1004 4.71843 5.76708 3.77051 4.13167C3.22885 3.19417 3.55176 1.97542 4.49968 1.43375L6.30176 0.402501C7.12468 -0.0870794 8.18716 0.204581 8.67676 1.0275L8.79136 1.22542C9.72886 2.86083 11.2706 2.86083 12.2185 1.22542L12.3331 1.0275C12.8226 0.204581 13.8851 -0.0870794 14.7081 0.402501L16.5101 1.43375C17.4581 1.97542 17.781 3.19417 17.2393 4.13167C16.2914 5.76708 17.0622 7.1004 18.9476 7.1004C20.031 7.1004 20.9268 7.9858 20.9268 9.0796V10.9129C20.9268 11.9963 20.0414 12.8921 18.9476 12.8921C17.0622 12.8921 16.2914 14.2254 17.2393 15.8608C17.781 16.8088 17.4581 18.0171 16.5101 18.5588L14.7081 19.59C13.8851 20.0796 12.8226 19.7879 12.3331 18.965L12.2185 18.7671C11.281 17.1317 9.73926 17.1317 8.79136 18.7671L8.67676 18.965C8.18716 19.7879 7.12468 20.0796 6.30176 19.59L4.49968 18.5588C3.55176 18.0171 3.22885 16.7983 3.77051 15.8608C4.71843 14.2254 3.9476 12.8921 2.06218 12.8921C0.968428 12.8921 0.0830078 11.9963 0.0830078 10.9129Z" fill="#FFB38A"/>
<path d="M10.4997 13.388C12.3694 13.388 13.8851 11.8723 13.8851 10.0026C13.8851 8.1329 12.3694 6.61719 10.4997 6.61719C8.62996 6.61719 7.11426 8.1329 7.11426 10.0026C7.11426 11.8723 8.62996 13.388 10.4997 13.388Z" fill="#FFAD76"/>
</svg>
