<svg width="18" height="15" viewBox="0 0 18 15" fill="none" xmlns="http://www.w3.org/2000/svg">
<path d="M8.87442 10.651H3.54892V6.21309H1.77375V13.3138C1.77375 13.8047 2.17039 14.2013 2.66133 14.2013H9.762C10.2529 14.2013 10.6496 13.8047 10.6496 13.3138V6.21309H8.87442V10.651ZM17.6005 3.9442L15.2345 0.393865C15.0681 0.147006 14.7907 0 14.4939 0H3.2549C2.95812 0 2.68075 0.147006 2.5171 0.393865L0.151134 3.9442C-0.242732 4.535 0.178871 5.3255 0.888938 5.3255H16.8627C17.57 5.3255 17.9916 4.535 17.6005 3.9442ZM14.1999 13.7576C14.1999 14.0016 14.3996 14.2013 14.6437 14.2013H15.5313C15.7754 14.2013 15.9751 14.0016 15.9751 13.7576V6.21309H14.1999V13.7576Z" fill="#666876"/>
</svg>
